<svg xmlns="http://www.w3.org/2000/svg" width="852.659" height="901.77" viewBox="0 0 852.659 901.77">
  <g id="Group_11" data-name="Group 11" transform="translate(852.659) rotate(90)" opacity="0.08">
    <path id="Union_1" data-name="Union 1" d="M122.807,0,124.8,1.989,511.191,388.384a1.166,1.166,0,0,0,1.649-1.648L128.434,2.33H644.49a1.165,1.165,0,0,0,0-2.33ZM0,54.444V411.019a1.166,1.166,0,0,0,2.332,0V54.444a1.166,1.166,0,0,0-2.332,0ZM481.105,173.333a1.166,1.166,0,0,0,0,2.332H833.264a1.166,1.166,0,0,0,0-2.332Zm-302.266,56.64v530.4c-56.72-42.253-113.122-106.1-139.015-200.63a1.167,1.167,0,0,0-1.123-.859,1.179,1.179,0,0,0-.309.042,1.165,1.165,0,0,0-.815,1.432,380.5,380.5,0,0,0,15.488,45.255,359.005,359.005,0,0,0,43.228,76.312A370.3,370.3,0,0,0,122.557,713.5c32.369,34.8,72.363,64.586,118.873,88.524a528.875,528.875,0,0,0,57.445,25.3c15.879,5.907,32.13,11.111,48.3,15.467,27.545,7.42,45.563,9.838,45.742,9.862a1.166,1.166,0,1,0,.3-2.312c-.178-.022-18.088-2.43-45.509-9.82a542.673,542.673,0,0,1-105.28-40.6A457.249,457.249,0,0,1,181.171,762.1V229.973a1.166,1.166,0,1,0-2.332,0ZM657.185,347.48a1.166,1.166,0,0,0,0,2.332H900.6a1.166,1.166,0,0,0,0-2.332Zm-308.338,53.6V713.5a1.165,1.165,0,1,0,2.33,0V401.084a1.165,1.165,0,1,0-2.33,0Zm512.23,64.028V850.327H472.549a1.166,1.166,0,0,0,0,2.332H863.407V465.112a1.165,1.165,0,1,0-2.33,0Zm-168.9,0v207.48H472.549a1.165,1.165,0,0,0,0,2.33H694.5V465.112a1.166,1.166,0,1,0-2.332,0Z" fill="#2491eb"/>
  </g>
</svg>
