<svg xmlns="http://www.w3.org/2000/svg" xmlns:xlink="http://www.w3.org/1999/xlink" width="1920" height="840" viewBox="0 0 1920 840">
  <defs>
    <clipPath id="clip-path">
      <path id="Path_10840" data-name="Path 10840" d="M0,0H1920V840H0Z" transform="translate(0 3796.292)" fill="#2491eb"/>
    </clipPath>
  </defs>
  <g id="Mask_Group_44" data-name="Mask Group 44" transform="translate(0 -3796.292)" clip-path="url(#clip-path)">
    <g id="Group_22939" data-name="Group 22939">
      <g id="Group_22774" data-name="Group 22774" transform="translate(1280.048 3797.175)" opacity="0.12">
        <path id="Union_1" data-name="Union 1" d="M92.1,0,93.6,1.492,383.388,291.284a.874.874,0,0,0,1.237-1.236L96.324,1.748H483.361a.874.874,0,0,0,0-1.748ZM0,40.833V308.26a.874.874,0,0,0,1.749,0V40.833a.874.874,0,0,0-1.749,0ZM360.824,130a.874.874,0,0,0,0,1.749H624.94a.874.874,0,0,0,0-1.749Zm-226.7,42.48v397.8C91.588,538.584,49.287,490.7,29.867,419.8a.875.875,0,0,0-.842-.644.884.884,0,0,0-.232.032.874.874,0,0,0-.612,1.074A285.367,285.367,0,0,0,39.8,454.2a269.25,269.25,0,0,0,32.421,57.233,277.718,277.718,0,0,0,19.7,23.68c24.276,26.1,54.272,48.439,89.153,66.392a396.666,396.666,0,0,0,43.083,18.971c11.909,4.43,24.1,8.333,36.223,11.6a297.556,297.556,0,0,0,34.306,7.4.874.874,0,1,0,.228-1.734,295.755,295.755,0,0,1-34.132-7.365,407,407,0,0,1-78.959-30.45,342.936,342.936,0,0,1-45.942-28.363V172.477a.874.874,0,1,0-1.749,0Zm358.754,88.13a.874.874,0,0,0,0,1.749H675.444a.874.874,0,0,0,0-1.749Zm-231.25,40.2V535.117a.874.874,0,1,0,1.748,0V300.809a.874.874,0,1,0-1.748,0ZM645.8,348.83V637.736H354.407a.874.874,0,0,0,0,1.749h293.14V348.83a.874.874,0,1,0-1.748,0Zm-126.676,0V504.438H354.407a.874.874,0,0,0,0,1.748H520.872V348.83a.874.874,0,1,0-1.749,0Z" fill="#fff"/>
      </g>
      <g id="Group_22775" data-name="Group 22775" transform="translate(-37.815 3955.71) rotate(45)" opacity="0.12">
        <path id="Union_1-2" data-name="Union 1" d="M92.1,639.486l1.492-1.492L383.388,348.2a.874.874,0,0,1,1.237,1.236l-288.3,288.3H483.361a.874.874,0,0,1,0,1.748ZM0,598.653V331.225a.874.874,0,0,1,1.749,0V598.653a.874.874,0,0,1-1.749,0Zm360.824-89.165a.874.874,0,0,1,0-1.749H624.94a.874.874,0,0,1,0,1.749Zm-226.7-42.48V69.213c-42.54,31.689-84.84,79.574-104.26,150.471a.875.875,0,0,1-.842.644.884.884,0,0,1-.232-.032.874.874,0,0,1-.612-1.074A285.367,285.367,0,0,1,39.8,185.281a269.25,269.25,0,0,1,32.421-57.233,277.718,277.718,0,0,1,19.7-23.68c24.276-26.1,54.272-48.439,89.153-66.392A396.664,396.664,0,0,1,224.153,19c11.909-4.43,24.1-8.333,36.223-11.6a297.556,297.556,0,0,1,34.306-7.4.874.874,0,1,1,.228,1.734,295.755,295.755,0,0,0-34.132,7.365,407,407,0,0,0-78.959,30.45,342.937,342.937,0,0,0-45.942,28.363V467.008a.874.874,0,1,1-1.749,0Zm358.754-88.129a.874.874,0,0,1,0-1.749H675.444a.874.874,0,0,1,0,1.749Zm-231.25-40.2V104.369a.874.874,0,1,1,1.748,0V338.677a.874.874,0,1,1-1.748,0ZM645.8,290.656V1.749H354.407a.874.874,0,0,1,0-1.749h293.14V290.656a.874.874,0,1,1-1.748,0Zm-126.676,0V135.048H354.407a.874.874,0,0,1,0-1.748H520.872V290.656a.874.874,0,1,1-1.749,0Z" transform="translate(0 0)" fill="#fff"/>
      </g>
    </g>
  </g>
</svg>
