<svg xmlns="http://www.w3.org/2000/svg" width="76.5" height="58.372" viewBox="0 0 76.5 58.372">
  <g id="Group_22916" data-name="Group 22916" transform="translate(0 0)">
    <path id="Path_10822" data-name="Path 10822" d="M37.569,58.307a.932.932,0,0,1-.933-.933V2.093L7.292,8.548V57.375a.933.933,0,1,1-1.866,0V7.8a.931.931,0,0,1,.732-.911L37.368.021A.933.933,0,0,1,38.5.933V57.375a.932.932,0,0,1-.933.933" transform="translate(-0.364 0)" fill="#a1a1a1"/>
    <path id="Path_10823" data-name="Path 10823" d="M48.863,17.341a.932.932,0,0,1-.933-.933V5.594l-8.5-3.81a.932.932,0,0,1,.763-1.7l9.05,4.057a.931.931,0,0,1,.551.851V16.408a.932.932,0,0,1-.933.933" transform="translate(-2.608 0)" fill="#a1a1a1"/>
    <path id="Path_10824" data-name="Path 10824" d="M11.569,15.841a.932.932,0,0,1-.186-1.846L32.828,9.613A.933.933,0,1,1,33.2,11.44L11.756,15.821a.921.921,0,0,1-.188.02" transform="translate(-0.714 -0.643)" fill="#a1a1a1"/>
    <path id="Path_10825" data-name="Path 10825" d="M11.569,23.868a.933.933,0,0,1-.163-1.851L32.851,18.2a.933.933,0,1,1,.328,1.837l-21.445,3.82a.913.913,0,0,1-.165.015" transform="translate(-0.714 -1.219)" fill="#a1a1a1"/>
    <path id="Path_10826" data-name="Path 10826" d="M11.569,31.475a.933.933,0,0,1-.126-1.857l21.446-2.933a.934.934,0,0,1,.253,1.85L11.7,31.467a.991.991,0,0,1-.128.008" transform="translate(-0.714 -1.789)" fill="#a1a1a1"/>
    <path id="Path_10827" data-name="Path 10827" d="M11.569,39.2a.933.933,0,0,1-.092-1.861L32.923,35.2a.933.933,0,0,1,.186,1.857L11.663,39.2c-.033,0-.063,0-.094,0" transform="translate(-0.714 -2.361)" fill="#a1a1a1"/>
    <path id="Path_10828" data-name="Path 10828" d="M11.569,46.787a.933.933,0,0,1-.058-1.864l21.445-1.356a.946.946,0,0,1,.99.871.933.933,0,0,1-.871.991L11.629,46.786l-.06,0" transform="translate(-0.714 -2.922)" fill="#a1a1a1"/>
    <path id="Path_10829" data-name="Path 10829" d="M11.568,54.38a.933.933,0,0,1-.02-1.866L33,52.058h.02a.933.933,0,0,1,.021,1.866l-21.448.456Z" transform="translate(-0.713 -3.492)" fill="#a1a1a1"/>
    <path id="Path_10830" data-name="Path 10830" d="M75.567,62.435H.933a.933.933,0,1,1,0-1.866H75.567a.933.933,0,0,1,0,1.866" transform="translate(0 -4.063)" fill="#a1a1a1"/>
    <path id="Path_10831" data-name="Path 10831" d="M67.033,59.487a.932.932,0,0,1-.933-.933V19.681L45.83,24.141V58.554a.933.933,0,0,1-1.866,0V23.392a.933.933,0,0,1,.733-.911l22.135-4.871a.933.933,0,0,1,1.134.911V58.554a.932.932,0,0,1-.933.933" transform="translate(-2.949 -1.179)" fill="#a1a1a1"/>
    <path id="Path_10832" data-name="Path 10832" d="M75.044,59.487a.932.932,0,0,1-.933-.933V22l-5.868-2.631a.932.932,0,0,1,.763-1.7l6.419,2.878a.931.931,0,0,1,.551.851V58.554a.932.932,0,0,1-.933.933" transform="translate(-4.541 -1.179)" fill="#a1a1a1"/>
    <path id="Path_10833" data-name="Path 10833" d="M50.823,28.978a.933.933,0,0,1-.186-1.847l.406-.082a.933.933,0,1,1,.374,1.828l-.407.082a.921.921,0,0,1-.188.02m5.148-1.052a.933.933,0,0,1-.186-1.847L56.192,26a.933.933,0,0,1,.373,1.828l-.406.082a.93.93,0,0,1-.188.02m5.149-1.051a.933.933,0,0,1-.188-1.846l.406-.084a.933.933,0,0,1,.378,1.828l-.407.083a.946.946,0,0,1-.189.02" transform="translate(-3.347 -1.672)" fill="#a1a1a1"/>
    <path id="Path_10834" data-name="Path 10834" d="M50.822,34.72a.933.933,0,0,1-.163-1.852l.41-.073a.933.933,0,1,1,.327,1.837l-.408.073a.9.9,0,0,1-.165.015M56,33.8a.933.933,0,0,1-.163-1.851l.409-.073a.933.933,0,1,1,.327,1.837l-.408.073A1,1,0,0,1,56,33.8m5.173-.922a.933.933,0,0,1-.16-1.852l.41-.073a.933.933,0,1,1,.322,1.839l-.409.072a.962.962,0,0,1-.162.014" transform="translate(-3.347 -2.075)" fill="#a1a1a1"/>
    <path id="Path_10835" data-name="Path 10835" d="M50.823,40.192a.933.933,0,0,1-.126-1.857l.411-.056a.932.932,0,1,1,.253,1.847l-.41.057a.992.992,0,0,1-.128.008m5.206-.712a.933.933,0,0,1-.124-1.858l.412-.055a.933.933,0,1,1,.249,1.849l-.411.056a.973.973,0,0,1-.126.008m5.207-.712a.933.933,0,0,1-.126-1.857l.411-.057a.933.933,0,0,1,.253,1.848l-.41.056a.85.85,0,0,1-.128.009" transform="translate(-3.347 -2.471)" fill="#a1a1a1"/>
    <path id="Path_10836" data-name="Path 10836" d="M50.823,45.745a.933.933,0,0,1-.091-1.861l.413-.041a.933.933,0,0,1,.184,1.857l-.412.041c-.032,0-.063,0-.093,0m5.229-.522a.933.933,0,0,1-.091-1.862l.412-.04a.933.933,0,1,1,.185,1.857l-.413.041c-.031,0-.062,0-.092,0M61.28,44.7a.933.933,0,0,1-.091-1.861L61.6,42.8a.944.944,0,0,1,1.02.836.932.932,0,0,1-.836,1.021l-.412.041c-.032,0-.062,0-.093,0" transform="translate(-3.347 -2.87)" fill="#a1a1a1"/>
    <path id="Path_10837" data-name="Path 10837" d="M50.814,51.2a.933.933,0,0,1-.059-1.864l.414-.026a.933.933,0,0,1,.118,1.862l-.414.026-.06,0m5.244-.332A.933.933,0,0,1,56,49l.415-.025a.943.943,0,0,1,.988.874.932.932,0,0,1-.873.988l-.415.026h-.058m5.244-.33a.933.933,0,0,1-.058-1.864l.414-.026a.944.944,0,0,1,.99.871.932.932,0,0,1-.871.991l-.415.026-.06,0" transform="translate(-3.346 -3.262)" fill="#a1a1a1"/>
    <path id="Path_10838" data-name="Path 10838" d="M50.822,56.661A.933.933,0,0,1,50.8,54.8l.415-.009a.922.922,0,0,1,.953.912.934.934,0,0,1-.913.953l-.413.009Zm5.253-.112a.933.933,0,0,1-.021-1.866l.415-.009h.021a.933.933,0,0,1,.02,1.866l-.413.009Zm5.254-.112a.933.933,0,0,1-.019-1.866l.415-.008h.018a.933.933,0,0,1,.019,1.866l-.414.008Z" transform="translate(-3.347 -3.66)" fill="#a1a1a1"/>
  </g>
</svg>
