<svg xmlns="http://www.w3.org/2000/svg" width="74.381" height="61.207" viewBox="0 0 74.381 61.207">
  <g id="Group_22898" data-name="Group 22898" transform="translate(3.075 0.073)">
    <g id="Group_22899" data-name="Group 22899" transform="translate(-3 0)">
      <path id="Union_7" data-name="Union 7" d="M326.127-1722.54v-31.314l-7.258-10.328v-10.069h8.1v-9.5h1.67v9.5h8.283v-1.507h-4.828v-1.67H343.41v1.67h-4.824v1.507h10.582v10.069l-7.259,10.328v31.3h-1.67v-31.833l.014-.019,7.245-10.306v-7.874H320.541v7.874l7.256,10.325v31.843Zm17.046-6.594v-1.67h43.658v1.67Zm-26.173,0v-1.67h8.064v1.67Zm50.814-18.654-5.128,1.451a9.652,9.652,0,0,1-2.453.281c-.2,0-.4,0-.617-.013l-5.542-.416c-.106-.007-.229-.01-.346-.012-.66-.012-1.885-.034-2.188-1.165l-.6-2.092.63-.632-3.325-4.381a1.285,1.285,0,0,1-.224-1.135,1.094,1.094,0,0,1,.679-.672l.007,0,.14-.036,2.331-.4a2.728,2.728,0,0,1,1.679.421l5.059,3.573a1,1,0,0,0,.879.185l6.189-1.742-6.39-9.058,5.448-.755a1.43,1.43,0,0,1,.162-.009,1.332,1.332,0,0,1,.749.231l9.543,6.9,7.723-2.183a11.618,11.618,0,0,1,3.005-.545,4.414,4.414,0,0,1,.559.034,6.909,6.909,0,0,1,.709.138l.049.011a3.476,3.476,0,0,0,.692.112c1.362.049,3.638.128,4.089,1.838a2.567,2.567,0,0,1-.975,2.479,11.219,11.219,0,0,1-4.38,2.44l-1.755.517-6.72,1.9-3.9,10.469a1.779,1.779,0,0,1-.816.93l-4.706,2.47Zm1.565-1.5.08.455.221,9.454,2.3-1.2c.049-.029.056-.046.059-.052l4.19-11.263,9.268-2.64a9.467,9.467,0,0,0,3.7-2.041c.4-.4.546-.743.518-.855-.061-.231-.53-.522-2.413-.589a5.66,5.66,0,0,1-1.172-.167l-.054-.013a4.354,4.354,0,0,0-.494-.094,2.744,2.744,0,0,0-.347-.021,10.468,10.468,0,0,0-2.543.477l-6.463,1.826.851.616-.978,1.354-11.978-8.665-2.575.357,6.8,9.646-1.363.962-.976-1.382-6.758,1.9a2.586,2.586,0,0,1-.7.1,2.751,2.751,0,0,1-1.594-.528l-5.033-3.553a.953.953,0,0,0-.57-.147l-1.286.226,3.714,4.893-.965.968.315,1.1c.043,0,.111,0,.22,0,.172,0,.355,0,.407.006.186,0,.322.007.44.015l5.513.413c.181.007.36.011.529.011a8.052,8.052,0,0,0,2.012-.223l6.483-1.834Z" transform="translate(-317.075 1783.675)" fill="#a1a1a1"/>
    </g>
  </g>
</svg>
