<svg xmlns="http://www.w3.org/2000/svg" width="58.36" height="58.36" viewBox="0 0 58.36 58.36">
  <g id="Group_22874" data-name="Group 22874" transform="translate(1964 -1281)">
    <path id="Path_10725" data-name="Path 10725" d="M17.326,209.119H2.736A2.739,2.739,0,0,1,0,206.383v-5.471A.912.912,0,0,1,.912,200H19.149a.912.912,0,0,1,.912.912v5.471a2.739,2.739,0,0,1-2.736,2.736m-15.5-7.295v4.559a.913.913,0,0,0,.912.912h14.59a.913.913,0,0,0,.912-.912v-4.559Z" transform="translate(-1964 1081)" fill="#a1a1a1"/>
    <rect id="Rectangle_4490" data-name="Rectangle 4490" width="6" height="2" transform="translate(-1960 1295)" fill="#a1a1a1"/>
    <path id="Path_10726" data-name="Path 10726" d="M20.237,259.065h-.912a15.519,15.519,0,0,1-15.5-15.5v-28.14l-1.788-6.261a.911.911,0,1,1,1.753-.5l1.824,6.383a.885.885,0,0,1,.036.25v28.268a13.694,13.694,0,0,0,13.678,13.678h.912a13.694,13.694,0,0,0,13.678-13.678V239a.912.912,0,0,1,1.824,0v4.559a15.519,15.519,0,0,1-15.5,15.5" transform="translate(-1964.176 1080.295)" fill="#a1a1a1"/>
    <path id="Path_10727" data-name="Path 10727" d="M21.471,248.122h-.912A4.565,4.565,0,0,1,16,243.563V215.3a.885.885,0,0,1,.036-.25l1.824-6.383a.911.911,0,1,1,1.753.5l-1.788,6.261v28.14a2.739,2.739,0,0,0,2.736,2.736h.912a2.739,2.739,0,0,0,2.736-2.736V239a.912.912,0,0,1,1.824,0v4.559a4.565,4.565,0,0,1-4.559,4.559" transform="translate(-1965.41 1080.295)" fill="#a1a1a1"/>
    <path id="Path_10728" data-name="Path 10728" d="M38.414,242.119H23.824A1.826,1.826,0,0,1,22,240.295v-5.471A1.826,1.826,0,0,1,23.824,233h14.59a1.826,1.826,0,0,1,1.824,1.824v5.471a1.826,1.826,0,0,1-1.824,1.824m-14.59-7.295v5.471H38.415v-5.471Z" transform="translate(-1965.939 1078.092)" fill="#a1a1a1"/>
    <path id="Path_10729" data-name="Path 10729" d="M25.912,232.8a.912.912,0,0,1-.912-.912v-4.559a15.519,15.519,0,0,1,15.372-15.5l6.262-1.79a.912.912,0,0,1,.5,1.754l-6.383,1.824a.93.93,0,0,1-.251.035,13.694,13.694,0,0,0-13.678,13.678v4.559a.912.912,0,0,1-.912.912" transform="translate(-1966.203 1080.119)" fill="#a1a1a1"/>
    <path id="Path_10730" data-name="Path 10730" d="M37.912,234.031a.912.912,0,0,1-.912-.912v-4.559A4.565,4.565,0,0,1,41.559,224a.931.931,0,0,1,.251.035l6.383,1.824a.912.912,0,0,1-.5,1.754l-6.251-1.786a2.739,2.739,0,0,0-2.617,2.733v4.559a.912.912,0,0,1-.912.912" transform="translate(-1967.261 1078.885)" fill="#a1a1a1"/>
    <path id="Path_10731" data-name="Path 10731" d="M50.736,228.061A2.739,2.739,0,0,1,48,225.326v-14.59A2.738,2.738,0,0,1,50.736,208h5.471a.912.912,0,0,1,.912.912v16.414a.912.912,0,0,1-1.824,0v-15.5H50.736a.912.912,0,0,0-.912.912v14.59a.912.912,0,0,0,.912.912.912.912,0,0,1,0,1.824" transform="translate(-1968.23 1080.295)" fill="#a1a1a1"/>
    <rect id="Rectangle_4491" data-name="Rectangle 4491" width="2" height="7" transform="translate(-1927 1292)" fill="#a1a1a1"/>
    <path id="Path_10732" data-name="Path 10732" d="M56.383,244.149A6.39,6.39,0,0,1,50,237.766a6.793,6.793,0,0,1,3.149-5.969,5.324,5.324,0,0,0,2.323-4.518v-1.367a.912.912,0,0,1,1.5-.7,17.439,17.439,0,0,1,5.8,12.555,6.39,6.39,0,0,1-6.383,6.383m.866-16.022a7.057,7.057,0,0,1-3.1,5.2,4.991,4.991,0,0,0-2.323,4.442,4.559,4.559,0,0,0,9.119,0,15.261,15.261,0,0,0-3.693-9.639" transform="translate(-1968.406 1078.797)" fill="#a1a1a1"/>
  </g>
</svg>
