<svg id="Group_22895" data-name="Group 22895" xmlns="http://www.w3.org/2000/svg" xmlns:xlink="http://www.w3.org/1999/xlink" width="58.207" height="58.185" viewBox="0 0 58.207 58.185">
  <defs>
    <clipPath id="clip-path">
      <rect id="Rectangle_4523" data-name="Rectangle 4523" width="58.207" height="58.185" fill="#a1a1a1"/>
    </clipPath>
  </defs>
  <g id="Group_22894" data-name="Group 22894" clip-path="url(#clip-path)">
    <path id="Path_10819" data-name="Path 10819" d="M138,40.668a3.854,3.854,0,0,1-2.743-1.136l-25.6-25.6a3.883,3.883,0,0,1,0-5.485l7.314-7.314a3.884,3.884,0,0,1,5.486,0l25.6,25.6a3.883,3.883,0,0,1,0,5.485l-7.314,7.314A3.853,3.853,0,0,1,138,40.668M119.72,2.584a1.289,1.289,0,0,0-.914.378l-7.314,7.314a1.3,1.3,0,0,0,0,1.829l25.6,25.6a1.292,1.292,0,0,0,1.828,0l7.314-7.314a1.3,1.3,0,0,0,0-1.829l-25.6-25.6a1.289,1.289,0,0,0-.914-.378" transform="translate(-90.989 0)" fill="#a1a1a1"/>
    <path id="Path_10820" data-name="Path 10820" d="M67.636,47.489a1.293,1.293,0,0,1-.914-2.207l3.891-3.891L58.725,19.314a2.57,2.57,0,0,1,.448-3.054l7.542-7.542a2.567,2.567,0,0,1,1.828-.757h.017a2.567,2.567,0,0,1,1.835.781l2.649,2.718a1.293,1.293,0,1,1-1.852,1.8l-2.649-2.718L61,18.088,72.889,40.165a2.57,2.57,0,0,1-.448,3.055L68.55,47.11a1.289,1.289,0,0,1-.914.379" transform="translate(-48.972 -6.674)" fill="#a1a1a1"/>
    <path id="Path_10821" data-name="Path 10821" d="M6.778,242.267h0a1.293,1.293,0,0,1-.914-.379L.379,236.4a1.293,1.293,0,0,1,0-1.829l14.628-14.628a1.293,1.293,0,0,1,1.829,0l5.485,5.486a1.293,1.293,0,0,1,0,1.828L7.693,241.889a1.293,1.293,0,0,1-.914.379m-3.657-6.778,3.657,3.657,12.8-12.8-3.657-3.657Z" transform="translate(0 -184.082)" fill="#a1a1a1"/>
  </g>
</svg>
