<svg xmlns="http://www.w3.org/2000/svg" width="63.753" height="63.753" viewBox="0 0 63.753 63.753">
  <g id="Group_22875" data-name="Group 22875" transform="translate(1851 -1281)">
    <path id="Path_10722" data-name="Path 10722" d="M144.876,263.753a31.876,31.876,0,1,1,31.876-31.876c0,12.37-6.407,22.991-17.139,28.412a10.667,10.667,0,0,1-10.469-.468,10.965,10.965,0,0,1-5.265-9.395v-2.611a1,1,0,1,1,1.992,0v2.611a8.986,8.986,0,0,0,4.316,7.7,8.691,8.691,0,0,0,8.528.387c10.046-5.074,16.044-15.032,16.044-26.634a29.884,29.884,0,1,0-29.884,29.884,1,1,0,1,1,0,1.992" transform="translate(-1964 1081)" fill="#a1a1a1"/>
    <path id="Path_10723" data-name="Path 10723" d="M144.731,246.853h-1.8A9.938,9.938,0,0,1,133,236.926V227.9a.9.9,0,1,1,1.8,0v9.024a8.131,8.131,0,0,0,8.122,8.122h1.8a8.131,8.131,0,0,0,8.122-8.122V227.9a.9.9,0,1,1,1.8,0v9.024a9.938,9.938,0,0,1-9.926,9.926" transform="translate(-1962.952 1082.222)" fill="#a1a1a1"/>
    <path id="Path_10724" data-name="Path 10724" d="M156.169,227.438h-5.414a.9.9,0,0,1-.9-.9V216.158a1.354,1.354,0,1,0-2.707,0v10.377a.9.9,0,0,1-.9.9h-5.414a.9.9,0,0,1-.9-.9V216.158a1.354,1.354,0,1,0-2.707,0v10.377a.9.9,0,0,1-.9.9H130.9a.9.9,0,1,1,0-1.8h4.512v-9.475a3.158,3.158,0,1,1,6.317,0v9.475h3.61v-9.475a3.158,3.158,0,1,1,6.317,0v9.475h4.512a.9.9,0,1,1,0,1.8" transform="translate(-1962.659 1081.356)" fill="#a1a1a1"/>
  </g>
</svg>
