<svg id="Icon_feather-arrow-right-circle" data-name="Icon feather-arrow-right-circle" xmlns="http://www.w3.org/2000/svg" width="44" height="44" viewBox="0 0 44 44">
  <path id="Path_10794" data-name="Path 10794" d="M23.5,45.5a22.161,22.161,0,0,1-4.433-.447,21.881,21.881,0,0,1-7.867-3.31,22.063,22.063,0,0,1-7.97-9.679,21.891,21.891,0,0,1-1.282-4.13,22.212,22.212,0,0,1,0-8.867A21.881,21.881,0,0,1,5.257,11.2a22.063,22.063,0,0,1,9.679-7.97,21.891,21.891,0,0,1,4.13-1.282,22.212,22.212,0,0,1,8.867,0A21.881,21.881,0,0,1,35.8,5.257a22.064,22.064,0,0,1,7.97,9.679,21.892,21.892,0,0,1,1.282,4.13,22.212,22.212,0,0,1,0,8.867,21.881,21.881,0,0,1-3.31,7.867,22.064,22.064,0,0,1-9.679,7.97,21.892,21.892,0,0,1-4.13,1.282A22.161,22.161,0,0,1,23.5,45.5Zm0-43.465A21.465,21.465,0,1,0,44.965,23.5,21.49,21.49,0,0,0,23.5,2.035Z" transform="translate(-1.5 -1.5)"/>
  <path id="Path_10795" data-name="Path 10795" d="M16.821,32.041a.321.321,0,0,1-.227-.548L26.816,21.271,16.594,11.048a.321.321,0,0,1,.454-.454L27.5,21.044a.321.321,0,0,1,0,.454L17.048,31.947A.32.32,0,0,1,16.821,32.041Z" transform="translate(4.068 0.729)"/>
  <path id="Path_10796" data-name="Path 10796" d="M30.273,17.143H10.8a.322.322,0,0,1,0-.643H30.273a.322.322,0,0,1,0,.643Z" transform="translate(0.729 5.179)"/>
</svg>
