<svg id="Icon_awesome-linkedin" data-name="Icon awesome-linkedin" xmlns="http://www.w3.org/2000/svg" width="30.341" height="30.341" viewBox="0 0 30.341 30.341">
  <path id="Icon_awesome-linkedin-2" data-name="Icon awesome-linkedin" d="M28.173,2.25H2.16A2.177,2.177,0,0,0,0,4.438V30.4a2.177,2.177,0,0,0,2.16,2.188H28.173A2.182,2.182,0,0,0,30.341,30.4V4.438A2.182,2.182,0,0,0,28.173,2.25Zm-19,26.006h-4.5V13.777h4.5v14.48ZM6.921,11.8A2.607,2.607,0,1,1,9.529,9.192,2.609,2.609,0,0,1,6.921,11.8ZM26.027,28.256h-4.5V21.213c0-1.68-.034-3.84-2.337-3.84-2.343,0-2.7,1.829-2.7,3.718v7.165h-4.5V13.777h4.314v1.978h.061a4.736,4.736,0,0,1,4.26-2.337c4.551,0,5.4,3,5.4,6.9Z" transform="translate(0 -2.25)" fill="#fff" opacity="0.3"/>
</svg>
