<svg xmlns="http://www.w3.org/2000/svg" xmlns:xlink="http://www.w3.org/1999/xlink" width="241.769" height="53.32" viewBox="0 0 241.769 53.32">
  <defs>
    <clipPath id="clip-path">
      <rect id="Rectangle_1" data-name="Rectangle 1" width="241.769" height="53.32" fill="none"/>
    </clipPath>
  </defs>
  <g id="Group_22766" data-name="Group 22766" transform="translate(-121 -69)">
    <g id="Group_5" data-name="Group 5" transform="translate(121 69)">
      <g id="Group_2" data-name="Group 2">
        <g id="Mask_Group_1" data-name="Mask Group 1" clip-path="url(#clip-path)">
          <path id="Path_1" data-name="Path 1" d="M0,29.765v20.49l5.274-5.274V26.661a21.376,21.376,0,0,1,.125-2.3ZM24.491,15.086V9.749a16.923,16.923,0,0,0-5.276,1.584V31.04l5.276-5.276V15.086Zm2.331,28.622H47.105a26.8,26.8,0,0,0,3.444-5.271H31.534l0,0-1.7,1.7-3.007,3.007-.563.563h.562ZM38.434,24.491V14.882H28.826V9.609H43.707V24.491Zm9.608-5.275v5.275l5.273,0V0H28.822l0,5.273h16.1l3.111,0,0,3.111v10.83Zm-13.942,0H28.822l0,5.275,5.274,0ZM21.925,48.042h20.6A26.465,26.465,0,0,1,26.659,53.32l-3.168-.005H16.652l-6.126,0H3.067L7.94,48.443l.4-.4,4.333-4.333L22.28,34.1l2.44-2.44,0,0,2.832-2.832h7.461L29.741,34.1l-2.832,2.833-.09.088-.052.052L15.8,48.042ZM52.246,34.1a26.185,26.185,0,0,0,.977-5.275H47.93l-4.361,0-2.672,0,.122.123L35.868,34.1H52.246ZM9.608,25.293v-11.5q-.312.412-.6.839H9L.194,23.441A26.772,26.772,0,0,1,24.491.093V5.387a21.24,21.24,0,0,0-9.61,3.451V35.374L9.608,40.647V26.661c0-.46.02-.916.055-1.368Z" fill="#2491eb" fill-rule="evenodd"/>
        </g>
      </g>
      <g id="Group_4" data-name="Group 4">
        <g id="Group_3" data-name="Group 3" clip-path="url(#clip-path)">
          <path id="Path_2" data-name="Path 2" d="M296.407,100.849h3.358V84.978h6.013V81.891H290.395v3.088h6.012Zm20.909.325a9.714,9.714,0,0,0,9.94-9.8v-.054a9.914,9.914,0,0,0-19.826.054v.054a9.624,9.624,0,0,0,9.886,9.75m.054-3.087a6.472,6.472,0,0,1-6.445-6.717v-.054a6.405,6.405,0,0,1,6.391-6.689,6.5,6.5,0,0,1,6.446,6.743v.054a6.383,6.383,0,0,1-6.392,6.663m21.694,3.06c4.957,0,8.153-2.843,8.153-8.5V81.891h-3.332V92.8c0,3.494-1.815,5.254-4.766,5.254-2.979,0-4.794-1.869-4.794-5.39V81.891h-3.332V92.8c0,5.5,3.142,8.341,8.071,8.341m21.721.027a12.086,12.086,0,0,0,7.908-2.952V90.259h-8.07v2.9h4.848V96.7a7.742,7.742,0,0,1-4.578,1.436c-3.872,0-6.445-2.87-6.445-6.771v-.054a6.412,6.412,0,0,1,6.148-6.689,7.429,7.429,0,0,1,5.308,2.031l2.112-2.518a10.235,10.235,0,0,0-7.286-2.574,9.659,9.659,0,0,0-9.777,9.8v.054a9.407,9.407,0,0,0,9.831,9.75m12.243-.325h3.331v-7.99H385.4v7.99h3.331V81.891H385.4v7.881h-9.046V81.891h-3.331Zm28.709,0h13.3V97.816h-9.967V81.891h-3.331Zm16.765,0h14.192V97.87H421.832V92.778h9.507V89.8H418.5Zm3.331-15.979h10.725V81.891H418.5V84.87Zm13.189,15.979h3.412c2.927-6.868,3.192-7.583,6.419-15.113,3.452,7.988,3.15,7.331,6.419,15.113h3.521l-8.343-19.094h-3.087Zm23.022,0h3.331V93.13h9.56V90.1h-9.56V84.924h10.78V81.891h-14.11Z" transform="translate(-230.385 -64.71)" fill="#fff" fill-rule="evenodd"/>
        </g>
      </g>
    </g>
  </g>
</svg>
