<svg xmlns="http://www.w3.org/2000/svg" xmlns:xlink="http://www.w3.org/1999/xlink" width="902.108" height="524.591" viewBox="0 0 902.108 524.591">
  <defs>
    <clipPath id="clip-path">
      <rect id="Rectangle_4431" data-name="Rectangle 4431" width="902.108" height="524.591" fill="#fff"/>
    </clipPath>
  </defs>
  <g id="Group_22777" data-name="Group 22777" transform="translate(-89 -99.593)">
    <g id="Group_22776" data-name="Group 22776" transform="translate(89 99.593)" clip-path="url(#clip-path)">
      <path id="Path_10635" data-name="Path 10635" d="M560.662,524.593a3.566,3.566,0,0,1-1.814-.5c-1.769-1.038-2.642-3.343-2.281-6.016a1.228,1.228,0,0,1,.034-.167c.294-1.058,1.412-1.443,5.2-1.789q.709-.065,1.543-.125a38.439,38.439,0,0,0-1.4-10.446c-2.03-7.093-2.711-7.155-7.12-7.559a48.089,48.089,0,0,1-12.527-2.656c-2-.693-3.425-1.242-4.368-1.678-.815-.376-2.18-1.007-1.886-2.262.336-1.43,2.212-1.266,4.384-1.076,1.822.16,4.206.465,6.731.788,3.5.448,7.113.91,9.413,1.007-1.026-1.779-5.022-5.8-8.037-8.841-9.082-9.147-14.427-14.934-12.09-18.162a2.6,2.6,0,0,1,1.962-1.072c4.707-.38,15.763,10.216,32.106,26.431,4.668,4.632,9.078,9.007,12.8,12.468,2.006,1.864,4.052,3.765,5.548,5.075l-.024-.065a58.055,58.055,0,0,1-3.488-12.866,3.918,3.918,0,0,1,1.591-4.123c1.32-.871,5.337-3.523,30.216,8.785,8.879,4.393,17.33,9.167,21.187,11.389-.59-4.9-1.944-16.364-3.244-29.008q-8.9-2.624-18.05-5.342c-4.725,2.761-14.2,3.2-22.5,2.025-10.576-1.5-17.788-5.2-19.291-9.907a15.838,15.838,0,0,1-.816-4.909q-3.282-1-6.554-1.992c-22.417-6.827-43.227-13.291-62.013-19.262q.315,4.877.614,10.147c1.376,24.341,2.4,55.295,1.9,57.106-.231.824-.493,1.76-10.627,3.858-5.843,1.21-13.674,2.522-22.05,3.694-20.1,2.812-37.23,4.064-45.827,3.351-5.573-.463-7.22-1.035-7.344-2.55-.159-1.928,2.393-2.659,11.265-4.894,4.62-1.164,10.227-2.576,13.212-3.977-4.481-1.215-19.237-2.35-31.371-3.284-15.965-1.228-33.65-2.589-43.444-4.7-.733,4.083-1.452,4.776-2.225,5.1a3.511,3.511,0,0,1-1.352.236c-5.607,0-18.461-9.006-24.837-17.81-4.938-6.818-5.6-12.681-1.909-16.954,10.979-12.713,13.337-17.056,13.816-18.463a14.675,14.675,0,0,0-2.828,1.294c-5.5,3.039-16.423,6.277-24.549,8.506a24.425,24.425,0,0,1-6.2,2.131c-1.4.258-2.336.425-2.96.527-.926.15-2.079.339-2.347-.856s.819-1.512,1.973-1.834c.709-.2,1.736-.47,3-.805,1.575-.418,3.507-.93,5.639-1.513A47.388,47.388,0,0,0,344.513,445.5a8.1,8.1,0,0,0,1.41-3.292,4.828,4.828,0,0,0-1.7.464c-2.266.938-5.235,1.926-8.673,3.071-12.275,4.086-30.827,10.261-29.092,19.511.728,3.878,2.7,9.8,4.6,15.529,4.641,13.961,6.279,19.8,3.735,21.393-1.513.943-3.537-.05-6.986-3.431-9.158-8.979-11.114-26.871-12.686-41.248-.944-8.635-1.76-16.092-3.845-18.979-5.39-7.46-15.787-11.046-46.354-15.99a45.36,45.36,0,0,1-22.671-10.816q-1.138-.985-2.18-1.995c-3.127-.332-6.041-.726-8.673-1.191.136,2.721.18,7.208.236,13.917.122,14.693.307,36.9,2.152,55.691,2.68,27.3,7.58,34.133,11.218,35.056.5.128,2.032.516,1.858,1.836-.162,1.23-1.508,1.467-3.705,1.709-1.649.182-4.093.346-7.264.487-5.862.261-14.45.455-25.526.577-18.638.205-44.586.213-77.123.025-55.394-.322,87.716-1.579,108.642-3.445-5.124-3.888-8.6-15.738-10.59-36-1.856-18.906-2.041-41.177-2.164-55.914-.051-6.134-.1-11.632-.262-14.425-4.7-.99-8.241-2.255-10.075-3.86-5.12-4.479-5.828-6.238-5.317-7.5a2.047,2.047,0,0,1,2.261-1.163c3.558.18,14.089,5.764,15.337,10.049a3.881,3.881,0,0,1,.088.385q2.781.505,6.173.925a58.057,58.057,0,0,1-8.762-12.99c-4.233-8.6-5.543-16.792-3.338-20.868,2.135-3.944,2.676-9.356,3.153-14.131.455-4.555.862-8.62,2.464-11.289a150.442,150.442,0,0,1,2.773-44.127c1.509-7.454,3.1-19.137,4.944-32.665,4.056-29.77,9.1-66.821,16.946-87.216a97.792,97.792,0,0,1,4.155-9.339,57.754,57.754,0,0,1,16.575-26.121c21.824-20.1,30.632-25.49,36.247-22.173s9.492,7.586,23.087,34.584c5.756,11.428,11.7,20.853,16.94,29.168,4.111,6.521,7.746,12.287,10.456,17.7-.4-12.561-.26-20.621,2.762-36.075,1.692-8.655,2.576-15,2.981-19.313-1.083,6.75-2.442,15.1-6.766,17.316a5.669,5.669,0,0,1-5.33-.239c-5.546-2.775-7.5-7.767-9.984-14.087-2.105-5.367-4.725-12.045-10.438-19.437-6.224-8.054-14.938-13.727-21.029-16.8a8.9,8.9,0,0,1-6.792-1.484c-1.02-.7-2-1.469-1.807-2.522a1.44,1.44,0,0,1,1.109-1.131c1.231-.3,4.4.861,7.776,2.5q.378-.108.761-.256c4.188-1.623,8.014-6.6,9.307-12.1,1.492-6.354-3.08-18.169-5.643-22.241a2.352,2.352,0,0,1-2.2-.278,2.076,2.076,0,0,1,1.751-3.491,2.922,2.922,0,0,1,1.237.78,53.214,53.214,0,0,0,11.841-8.86,32.288,32.288,0,0,0,2.593-2.853q-3.779-1.16-7.117-2.494c-1.757,2.534-3.664,5.158-5.446,7.476-1.883,2.45-3.551,4.456-4.823,5.8-1.753,1.857-3,2.822-4.168,2.258-1.58-.761-.725-3.109-.214-4.512,1.4-3.842,1.54-9.342,1.666-14.2.034-1.335.067-2.609.123-3.8-6.013-4.542-9.344-9.882-9.247-14.972.051-2.678.724-4.451,2.06-5.42,1.984-1.439,4.733-.6,7.157.141a12.62,12.62,0,0,0,3.494.757c.8-.474,2.545-4.079,3.948-6.985,4.6-9.534,12.306-25.492,26.473-29.08,10.031-2.539,22.33-2.384,33.742.425,12.19,3,22.49,8.758,29,16.213,11.074,12.673,12.853,29.469,11.7,38.411,7.621.779,18.065,3.626,25.182,8.2,2.461,1.583,2.563,3.079,2.215,4.055-.457,1.282-1.967,2.92-9.654,4.218a157.9,157.9,0,0,1-20.275,1.67c-2.092.063-4.234.1-6.413.125a81.6,81.6,0,0,1-5.293,18.02c-1.616,3.839-3.108,8.013-4.687,12.431-5.408,15.129-11,30.774-22.137,33.47a31.186,31.186,0,0,1-24.8-5.073c-4.7-3.457-7.464-7.946-7.773-12.64a56.923,56.923,0,0,1,.3-9.914c.46-4.693.713-7.278-2.774-10.721a41.936,41.936,0,0,0-4.663-3.742c-3.662-2.67-7.448-5.432-7.876-9.463-.28-2.636.915-5.408,3.653-8.474a28.229,28.229,0,0,1,7.349-6.248c-3.685.334-6.492,1.467-8.111,3.317-6.24,7.131-8.59,18.006-5.237,24.242.244.454.554,1.039.925,1.738,17.487,32.98,25.69,40.233,29.491,40.51,2.263.166,4.2.391,5.895.672a1.342,1.342,0,0,1,1.356-.241,1.4,1.4,0,0,1,.856.664,39.544,39.544,0,0,1,10.329,4l.23.116c1.03.521,2.529,1.9,4.371,7.51,3.323.666,7.6,3.39,13.145,8.322,6.333,5.636,13.414,13.322,20.262,20.755,7.8,8.461,15.159,16.454,20.26,20.13,5.077,3.661,8.489,5.217,11.247,5.615,2.748-3.032,5.173-4.622,7.389-4.887a5.473,5.473,0,0,1,4.673,1.74l.077.08a27.393,27.393,0,0,1,6.852-1.041c8.76-.258,37.484-12.793,56.491-21.087,14.948-6.523,20.32-8.8,21.85-8.754a2.682,2.682,0,0,1,2.3,1.466c2.235,3.994-1.292,16.271-5.816,24.169-5.714,9.979-39.192,42.191-51.787,48.621-3.229,1.649-6.612,3.626-9.884,5.538-1.249.73-2.5,1.462-3.758,2.183a4.109,4.109,0,0,1-.144,1.9c-.56,1.685-2.181,2.747-4.957,3.249a4.22,4.22,0,0,1-3.177-.735c-5.2,2.465-10.213,4.064-14.642,3.57A5.4,5.4,0,0,1,432,263.295c-4.463-8.044,5.486-30.2,5.59-30.416a1.616,1.616,0,0,1,1.6-1.046c1.547.117,2.184,2,4.378,9.172a117.779,117.779,0,0,0,4.869,13.849,19.369,19.369,0,0,0,2.866,4.74c1.622-.812,3.266-1.7,4.918-2.631-1.28-2.587-4.559-6.1-6.564-8.251-3.783-4.056-4.729-14.305-5.644-24.216-.508-5.506-1.073-11.623-2.166-14.457-.842.3-1.63.61-2.389.911-2.513,1-4.784,1.9-7.616,1.787a77.4,77.4,0,0,0-6.486,9.318c-3.914,6.417-2.061,13.749-.268,20.839,1.451,5.739,2.951,11.672,1.33,17.049a7.751,7.751,0,0,1-4.012,4.832c-7.045,3.612-20.882-1.138-30.038-4.281-1.9-.652-3.542-1.216-4.856-1.613-2.024-.612-3.267-1.679-3.692-3.169-1.016-3.56,3.128-8.276,7.516-13.268,1.648-1.875,3.341-3.8,4.6-5.523-2.025,1.293-4.875,3.339-7.177,4.992a119.309,119.309,0,0,1-11.085,7.425c-.757.4-2.53,1.341-3.574.2-1.364-1.488.195-4.056,5.81-12.734,2.95-4.558,6.294-9.725,8.772-14.5q.114-.219.207-.409c-3.56,2.485-11.482,10.008-16.074,14.37l-.561.533c.033,13.142-.074,23.738-.319,31.528-.158,5.012-.376,8.913-.648,11.594q-.036.357-.073.686c18.147,3.415,32.656.187,35.747-1.427.435-.227,1.59-.829,2.393.032.865.929.218,1.979-1.072,4.073-.941,1.528-3.145,5.106-2.519,6.156.157.264.819.519,2.2.441,4.05-.229,6.769-2.674,9.168-4.831,3.047-2.74,6.2-5.573,10.769-1.849a71.582,71.582,0,0,1,7.391,7.73,7.05,7.05,0,0,1,3.494.556l.874.279c5.118,1.63,12.508,3.984,16.9,9.179,2.287.644,4.671,1.237,7.32,1.894,4.854,1.205,10.356,2.572,17.639,4.84,2.13.663,3.831,1.168,5.194,1.559a35.354,35.354,0,0,1-.106-5.24c.6-11.978,24.155-66.466,29.037-75,2.616-4.571,6.238-12.062,9.433-18.671,2.859-5.912,5.328-11.018,6.505-12.851a1.526,1.526,0,0,1,1.882-.822c1.081.4,1.131,1.688,1.084,3.337-.035,1.232-.169,2.954-.409,5.263-.442,4.238-1.179,9.81-1.891,15.2-.777,5.878-1.511,11.43-1.86,15.159,0,.034-.007.068-.01.1,1.619-10.223,3.088-20.731,4.35-29.76,2.04-14.6,3.142-22.295,3.927-24.034,2.273-5.038,14.976-15.894,25.815-23.848,2.421-1.777,4.752-3.419,7.007-5.008a125.119,125.119,0,0,0,10.3-7.75q.271-1.631.559-3.258a89.647,89.647,0,0,0-8.663,5.669c-5.794,4.145-12.9,9.653-19.176,14.512-17.466,13.531-18.809,14.277-20.139,13.249a1.508,1.508,0,0,1-.363-1.914,16.041,16.041,0,0,0-.6-12.262,11.564,11.564,0,0,0-7.776-6.32c-4.191-1.1-6.849.032-9.421,1.128-3.466,1.478-7.049,3-12.744-2.358-5.3-4.993-6.916-18.912-7.335-29.709-.51-13.145.553-25.915,1.865-31.736,1.345-5.96,5.694-10.81,12.579-14.027a43.785,43.785,0,0,1,21.238-3.612c9.522.664,9.848,7.8,10.11,13.537.175,3.83.341,7.447,2.817,9.1,3.753,2.507,5.259,6.6,6.05,9.567.3-1.54.536-3.569.784-5.682.806-6.868,1.64-13.969,5.245-14.987,2.53-.714,4.878,1.811,6.424,3.772,7.823,9.927,6.521,15.994,5.371,21.346a28.566,28.566,0,0,0-.715,4.423c-.178,3.251,3.734,8.013,8.541,10.4,1.522.756,5.314,2.3,7.639.326a9.034,9.034,0,0,0,1.766-2.2q.336-1.6.657-3.123c1.483-7.04,2.764-13.12,3.051-16.272A53.5,53.5,0,0,0,589,93.084c-3.29-2.269-9.175-5.5-17.918-9C556.617,78.3,541.6,74.772,529.879,74.4c-21.964-.693-28.541,9.782-31.353,14.256a6.066,6.066,0,0,1-1.8,2.215c-1.951,1.056-14.993-.764-21.105-6.469-3.467-3.235-4.248-7.255-2.259-11.624,6.909-15.186,28.7-14.227,59.292-8.113,14.107,2.82,32.527,8.6,49.273,15.462,1.259.516,2.787,1.154,4.479,1.884q-.4-1.224-.87-2.459c-5.064-13.376-13.962-22.769-26.449-27.919-19.72-8.131-30.936-1.285-38.359,3.245-3.872,2.363-6.93,4.229-9.955,3.393a2.962,2.962,0,0,1-2.255-3.578c.59-3.7,6.512-10.047,14.4-15.428,9.209-6.282,18.748-9.687,26.173-9.34,9.375.436,19.6,3.707,28.793,9.211,8.972,5.373,15.822,12.312,18.8,19.038,4.031,9.118,4.407,20.757,3.688,30.471,5.672,3.036,10.6,6.277,12.058,8.964a3.189,3.189,0,0,1,.307,2.78c-1.88,4.743-8.349,8.3-12.817,7.039-1.358-.382-4.421-1.835-3.519-7.061.486-2.825,1-6.359,1.345-10.265-2.253-1.17-4.757-2.389-7.471-3.635.429,1.785.771,3.522,1.039,5.182,1.917,1.449,3.16,2.81,3.355,3.964.775,4.547-1.941,21.373-6.429,29.434-.88,4.2-1.827,8.809-2.713,13.539a1.793,1.793,0,0,1,1.041.711c1.993,2.848-1.115,6.017-2.446,7.281q-.229,1.408-.443,2.809a31.359,31.359,0,0,1,16.94-3.264c8.112.611,16.627,3.949,25.309,9.919,10.982,7.554,18.355,29.088,22.606,45.821,5.812,22.875,9.459,51.214,10.27,79.794q.264,9.306.531,18.27c1.493,50.7,2.673,90.744-.855,104.287-2.808,10.782-11.809,12.045-16.644,12.723l-.139.02a4.884,4.884,0,0,1-2.2,2,1.842,1.842,0,0,1-2.206-1,1.932,1.932,0,0,1-.078-1.855c.458-.892,1.474-1.207,2.981-1.455,2.48-4.387,6.389-15.041,5.809-20.943-.385-3.921-6.243-7.079-13.66-11.077-6.451-3.478-14.479-7.806-21.585-14.163-5.865-5.248-6.573-6.982-5.829-8.347,1-1.828,3.953-1.1,10.542.717a68.99,68.99,0,0,0,11.552,2.522c2.563.2,3.124-.33,3.235-.5.726-1.1-1.494-5.342-3.452-9.086a104.281,104.281,0,0,1-6.145-13.367c-1.229-3.447-1.3-3.868-.757-4.5a1.288,1.288,0,0,1,1.2-.424c.736.138.911.171,3.506,5.817,1.383,3.011,3.237,7.2,5.221,11.807,3.1,7.189,7.2,17.009,9.193,22.412.274-4.045.2-11.6.134-17.527-.077-7.378-.157-15.008.218-19.261a55.547,55.547,0,0,1,3.133-13.245c1.691-5.106,3.441-10.386,3.254-18.058a84.219,84.219,0,0,0-2.105-15.332c-1.308-6.376-2.439-11.882-.7-17.246,2.872-8.849,6.368-51.7-2.8-84.651-3.851-13.84-10.735-22.758-19.908-25.792-9.295-3.075-18.561.458-24.133,4.788-4.848,3.768-7.858,18.53-8.476,41.566-.515,19.211.809,38.8,1.963,45.55,1.119,6.552,3.3,9.833,5.6,13.307,2.4,3.612,4.879,7.346,5.862,14.694.593,4.424.338,9.7-.164,16.093a4.55,4.55,0,0,1,1.183,1.555c1.174,2.559-.371,5.7-2.056,9.027-.983,12.5-1.713,27.534.78,45.468a209.054,209.054,0,0,0,5.145,26.474c.369,1.414.636,2.433.76,3.209,3.417.2,7.555.52,10.909.852,17.265,1.708,18.394,3.7,18.876,4.548,2.824,4.975-1.714,20.859-4.354,27.771-.586,1.537-2.7,1.909-7.494,1.283q.987,1.4,1.914,2.821c1.8-.47,5.146-.373,11.581.911,18.234,3.642,52.15,14.99,77.81,24.4,14.109,5.172,27.072,10.236,36.5,14.26,16.139,6.889,16.167,8.181,16.189,9.22.079,3.713-1.629,33.343-10.2,41.109a6.826,6.826,0,0,1-5.55,1.942c-4.578-.547-54.723-14.563-115.2-32.364,1.675,16.179,3.406,30.182,3.438,30.437a1.251,1.251,0,0,1-1.879,1.231c-.112-.066-11.279-6.671-23.216-12.576-21.282-10.529-26.471-9.755-27.716-8.935-.2.13-.657.434-.488,1.708a55.851,55.851,0,0,0,3.353,12.324c1.068,2.881,1.51,4.073.381,4.827s-2.393-.338-3.744-1.485c-1.4-1.189-3.548-3.175-6.211-5.648-3.756-3.49-8.18-7.879-12.863-12.525-6.372-6.323-12.962-12.861-18.575-17.832-7.939-7.032-10.652-7.955-11.564-7.882-.113.009-.128.03-.138.045-.028.039-.648,1,2.818,5.294,2.38,2.95,5.756,6.35,9.021,9.639,7.232,7.284,9.688,10.006,8.853,11.944a2.133,2.133,0,0,1-2.27,1.174c-2.4-.059-6.288-.558-10.053-1.04-.947-.121-1.989-.254-3.021-.381a44.988,44.988,0,0,0,11.234,2.289c5.277.483,6.9,1,9.3,9.38l.01.038a40.982,40.982,0,0,1,1.489,10.924c2.008-.107,4.381-.2,7.1-.277,9.006-.254,22.165-.347,39.111-.279,28.526.117,68.184.694,117.872,1.714,84.594,1.737,86.777,4.3,3.324,2.572-111.465-2.312-153.075-2.016-167.626-1.237-.528,3.337-1.86,4.836-2.7,5.466a3.787,3.787,0,0,1-2.279.8m-1.669-5.585a3.175,3.175,0,0,0,1.121,2.923,1.119,1.119,0,0,0,1.324-.136,5.356,5.356,0,0,0,1.637-3.3,25.608,25.608,0,0,0-4.082.515M426.6,518c.792.126,1.911.264,3.489.4,8.165.679,24.563-.5,43.867-3.14,17.468-2.393,29.9-5.014,32.035-6.2.215-3.523-.479-28.9-1.962-55.342-.238-4.246-.476-8.17-.713-11.8-21.941-6.989-41.042-13.283-56.633-18.667-17.244-5.955-30.6-10.931-39.708-14.79-14.54-6.163-15.729-8.369-15.7-9.952.1-5.826,2.8-16.71,6.571-26.468,2.658-6.878,8-18.68,13.939-20.446,1.78-.53,4.405-.416,6.8,3.129a11.23,11.23,0,0,1,.851,1.5,19.761,19.761,0,0,1,5.54,1c2.9.918,9.472,3.1,18.573,6.121,24.53,8.143,70.191,23.3,109.727,35.482,15.263,4.7,28.4,8.591,39.258,11.616,1.7-3.414,3.167-6.7,4.316-9.27.562-1.258,1.048-2.344,1.469-3.244.38-.814.811-1.738,1.809-1.655a1.291,1.291,0,0,1,1.141.955c.416,1.487-2.63,9.344-2.759,9.678-.572,1.47-1.249,3.09-1.992,4.636q4.79,1.308,8.906,2.363c5.717,1.465,10.109,2.472,13.483,3.155-3.588-4.6-7.472-9.026-11.06-13.119-6.326-7.216-11.79-13.449-14.049-18.5-1.72-3.842-2.738-5.788-3.87-6.456-1.065-.628-2.77-.338-5.865.188A110.444,110.444,0,0,1,560.5,380.8c-13.025-.349-15.363-1.245-15.677-3.121-.388-2.318,2.928-3.67,14.49-8,5.415-2.029,12.155-4.554,18.862-7.52,16.828-7.443,14.823-18.627,12.284-32.789-.331-1.845-.665-3.711-.966-5.6-5.107.848-14.593,1.38-32.69.472-17.859-.9-36.688-2.826-45-3.825a6.094,6.094,0,0,0-5.026,1.524,13.8,13.8,0,0,0-3.436,5.569c-.858,5.914-1.917,12.282-3.021,17.639-.381,5.93-.4,11.919-.42,16.7-.028,7.605-.076,11.323-.88,12.738a1.454,1.454,0,0,1-1.915.733c-.8-.369-1.485-.688-1.573-10.694-.016-1.768-.009-3.686.02-5.717-2.2,2.58-5.1,3.423-8.957,2.649-4.27-.858-9.538-3.562-16.83-7.305l-1.178-.6c-2.666-1.367-5.311-2.778-7.869-4.141-5.774-3.078-11.388-6.071-16.595-8.209q-.438.052-.889.066a71.724,71.724,0,0,1-11.326-.658c-6.322-.868-6.882-1.777-6.938-2.79-.092-1.681,2.044-1.983,4.847-2.2,4.4-.345,9.328.9,14.593,3,7.71-1.567,13.163-15.09,13.341-27.14a13.241,13.241,0,0,0-2.66-8.449c-2.3-.667-4.529-1.4-6.865-2.33a78.4,78.4,0,0,1-7.956-3.7c6.389,8.39,12.359,18.262,11.06,23.387a4.411,4.411,0,0,1-1.479,2.382c.922,2.291,1.2,4.228.407,5.43-1.428,2.166-4.792.911-5.9.5a39.492,39.492,0,0,1-5.386-2.512c1.479,2.362,2.2,4.478,1.542,5.955-.619,1.388-2.146,2-4.539,1.825-4.391-.326-9.111-3.833-12.3-6.726a13.688,13.688,0,0,1-.28,4.907c3.1.242,4.158.747,4.31,1.925.183,1.419-1.419,2.168-3.22,2.871-1.833.716-4.648,1.593-8.6,2.683l-.028.008h0a1.251,1.251,0,0,1-.664-2.413l.04-.011a8.077,8.077,0,0,0,4.335-2.727c-1.673-.043-3.482-.065-5.142-.084l-.619-.008a14.3,14.3,0,0,1-1.636.172,12.387,12.387,0,0,1-3.257-.254c-10.7-.243-18.194-.956-20.068-3.991a3.147,3.147,0,0,1-.058-3.179,34.776,34.776,0,0,1,4.97-7.538,31.964,31.964,0,0,0-3.741-4.785c-2.435-2.379-10.746-1.053-20.369.483-3.521.562-7.339,1.171-11.333,1.681a26.53,26.53,0,0,1,2.727,1.89c2.634,2.1,4.078,4.323,4.292,6.594a4.356,4.356,0,0,1-.936,3.211,1.445,1.445,0,0,1,.653.373c.829.813,1.577,4.79,2.146,8.892,7.759.362,13.574,1.033,15.82,2.154,1.319.658,1.582,1.511,1.57,2.11-.029,1.436-1.635,2.341-3.03,2.97a85.862,85.862,0,0,1-13.14,4.156c.529,6.826,1,17.533-.724,22.076-.57,1.5-2.183,2.994-4.823,4.473-.343,8.463-.674,17.651-.937,27.04,4.718-.637,8.606-1.293,11.423-1.946q.618-.143,1.17-.287c.6-21.812,1.155-39.844,1.922-44.955.152-1.01.555-3.693,2.434-3.8.794-.044,2.655-.153,4.966,8.411,3.015,11.174,5.769,36.011-4.964,41.461a14.122,14.122,0,0,1-1.907.771q-.075,2.757-.152,5.58c-.579,21.255-1.236,45.345-2.176,64.138-.513,10.253-1.055,17.908-1.657,23.4-.133,1.217-.266,2.293-.4,3.246,9.409,2.061,27.208,3.43,43.251,4.664,28.856,2.22,34.032,3.011,34.612,5.289a1.777,1.777,0,0,1-.947,1.981c-2.807,1.819-9.05,3.391-15.087,4.912-2.7.681-5.86,1.476-7.814,2.128m210.821-37.8C700,498.635,749.115,512.279,753.2,512.767a4.387,4.387,0,0,0,3.572-1.311c7.162-6.493,9.406-33.158,9.378-38.921-2.323-2.4-25.286-12.274-59.334-24.464-27.989-10.021-62.589-21.146-75.757-22.316A16.817,16.817,0,0,0,628,425.7c3.809,6.29,6.445,12.716,6.64,18.954.285,9.161,1.486,22.82,2.778,35.548M368.794,504.421h0M356.243,451a1.98,1.98,0,0,1,1.631.715c.951,1.172.68,3.088-3.6,9.006-2.43,3.357-5.962,7.722-10.5,12.975-3.591,4.16-.872,9.828,2.041,13.85a55.262,55.262,0,0,0,13.35,12.462c5.325,3.573,8.666,4.524,9.7,4.314a11.021,11.021,0,0,0,.918-3.412,20.675,20.675,0,0,1-3.112-1.065c-3.479-1.588-8.072-10.178-7.79-66.2.046-9.075.217-18.5.461-27.78-19.118,2.388-49.307,4.466-77.832,5.193-16.176.412-39.339.589-57.266-.94a42.64,42.64,0,0,0,21.073,9.943c28.51,4.612,41.478,7.992,47.983,17,2.472,3.422,3.281,10.814,4.3,20.173,1.529,13.98,3.431,31.379,11.95,39.733,2.383,2.337,3.486,2.878,3.881,3,.115-.46.194-1.9-.922-6.132-.924-3.507-2.4-7.955-3.834-12.257-1.931-5.808-3.927-11.813-4.686-15.857-2.138-11.4,16.877-17.725,30.761-22.347,3.393-1.129,6.322-2.1,8.506-3.008.752-.311,3.042-1.259,4.394-.063.53.469,1.059,1.4.571,3.155-1.027,3.7-6.115,10.188-12.519,15.223,6.123-1.846,12.322-3.972,15.948-5.976a10.991,10.991,0,0,1,4.588-1.7m5.612-45.462c-.249,9.39-.424,18.933-.471,28.117-.276,54.954,4.332,63,6.327,63.914a17.578,17.578,0,0,0,2.444.86c.629-4.762,1.352-13.111,2.057-27.635.9-18.535,1.538-41.955,2.1-62.618q.066-2.423.131-4.8-.261.064-.533.126c-2.953.685-7.061,1.371-12.057,2.037m257.419,69.3q7.893,2.344,15.556,4.6c-1.258-12.486-2.408-25.731-2.688-34.706-.173-5.542-2.487-11.342-5.887-17.09-1.31,4.554-1.923,12.769-2.519,20.747-.855,11.451-1.663,22.266-4.416,26.379l-.046.067m-42.3-10.078a13.926,13.926,0,0,0,.668,3.38c1.169,3.658,7.943,6.874,17.258,8.191,7.122,1.007,14.132.676,18.441-.651-12-3.57-24.2-7.233-36.367-10.92m.153-2.568c13.4,4.062,26.646,8.036,39.506,11.861a3.419,3.419,0,0,0,.608-.674c2.387-3.565,3.244-15.044,4-25.173.727-9.742,1.414-18.943,3.322-23.267l0-.01c-1.064-1.638-2.2-3.266-3.392-4.881-3.6-.643-8.194-1.663-13.722-3.043q-5.41-1.351-12.111-3.186a12.683,12.683,0,0,1-3.044,3.908,2.643,2.643,0,0,1-1.071.454,55.735,55.735,0,0,1-5.183,7.571c-1.677,2-3.964,4.344-6.385,6.824-2.774,2.841-5.643,5.78-7.7,8.325-2.947,3.65-2.786,4.789-2.724,4.981s.419.35.96.442c3.213.551,7.821-2.223,11.184-4.247,3.175-1.911,4.923-2.963,6.158-1.863,1.041.929.589,2.565-.478,4.9a48.3,48.3,0,0,1-5.384,8.665c-2.19,2.99-4,5.459-4.551,8.411M505.7,440.055c19.6,6.234,41.43,13.014,64.995,20.183l4.018,1.22c.711-3.372,2.737-6.139,4.947-9.156a45.61,45.61,0,0,0,5.127-8.225c.275-.6.46-1.062.585-1.412-.767.392-1.8,1.015-2.7,1.554-3.7,2.227-8.767,5.279-12.9,4.57a3.306,3.306,0,0,1-2.918-2.136c-1.034-3.184,3.47-8.1,11.011-15.827,2.387-2.445,4.642-4.754,6.257-6.682a48.632,48.632,0,0,0,3.969-5.606c-2.218.1-5.653.076-11.036-.234-8.306-.478-18.844-1.522-28.914-2.864-10.765-1.435-34.437-5.038-45.816-10.258.394,2.469.8,5.573,1.233,9.481.736,6.7,1.461,15.34,2.136,25.391m-102.6-36.03c1.785.821,3.911,1.753,6.442,2.8,9.4,3.91,22.957,8.91,40.281,14.86,14.888,5.115,32.85,11.025,53.313,17.549-1.336-19.667-2.623-30.049-3.608-35.532a13.561,13.561,0,0,1-1.657-1.187c-2.775-2.362-2.262-4.549-1.709-5.643.967-1.912,2.2-1.681,2.689-1.492.9.352,1.862,1.309,2.939,6.748,6.958,3.769,23.279,7.634,45.292,10.639,20.858,2.846,37.721,3.69,42.55,3.166.6-1.06,1.184-2.138,1.746-3.216-10.18-2.843-22.322-6.428-36.3-10.72-40.163-12.329-87.1-27.908-112.312-36.278-9.091-3.018-15.66-5.2-18.541-6.111a18.66,18.66,0,0,0-3.879-.828c2.946,11.66-5.682,31.832-12,40.41-1.985,2.695-3.718,4.3-5.243,4.831m219.485,13.728c5.231.886,6.816.673,7.292.475,3.592-9.48,6.29-22.2,4.443-25.455-.128-.158-1.812-1.785-16.788-3.277-4.232-.422-8.381-.715-11.508-.889-.7.517-1.648.382-2.9.2-.506-.072-1.079-.154-1.758-.221-1.08-.107-2.014-.2-2.127-1.26a1.276,1.276,0,0,1,.876-1.336,24.294,24.294,0,0,1,4.023.008c-.14-.636-.366-1.5-.612-2.441a211.485,211.485,0,0,1-5.2-26.763,192.581,192.581,0,0,1-1.338-38.131q-.058.36-.091.717a3.2,3.2,0,0,1-1.285,2.22,8.448,8.448,0,0,1-3.672,1.657c.3,1.911.64,3.8.975,5.667,1.289,7.187,2.506,13.974,1.089,20-1.6,6.824-6.314,11.755-14.824,15.519-6.774,3-13.551,5.534-19,7.574-5.028,1.884-10.644,3.988-12.435,5.192,1.241.385,4.491.863,12.811,1.086a106.6,106.6,0,0,0,23.083-1.588c7.4-1.259,8.5-1.082,12.438,7.713,2.106,4.7,7.454,10.805,13.647,17.87,4.19,4.78,8.774,10.008,12.856,15.457m-15.087-56.2a32.1,32.1,0,0,0,4.923,5.051c6.885,6.159,14.768,10.41,21.1,13.825,8.071,4.352,14.447,7.788,14.963,13.035.346,3.516-.728,9.184-2.872,15.162a54.488,54.488,0,0,1-2.329,5.566c4.548-.756,10.669-2.569,12.763-10.606,3.438-13.2,2.263-53.084.775-103.583q-.264-8.95-.531-18.273C655.35,248.412,650.6,217,643.7,193.9c8.271,34.166,4.186,73.873,1.638,81.722-1.536,4.735-.467,9.942.771,15.971a86.289,86.289,0,0,1,2.155,15.773c.2,8.107-1.621,13.6-3.38,18.906a52.772,52.772,0,0,0-3.016,12.678c-.364,4.13-.285,11.7-.209,19.015.2,19.281-.042,21.994-2,22.338-1.51.262-2.16-1.6-2.549-2.719-.981-2.8-2.895-7.6-5.1-12.917-1.26,1.319-3.524,1.317-5.18,1.188a70.547,70.547,0,0,1-12.022-2.6,53.052,53.052,0,0,0-7.3-1.7M221.222,407.307c14.254,1.43,34.914,1.891,60.225,1.245,28.678-.73,59.005-2.823,77.964-5.217.25-9.03.565-17.878.893-26.084a75.9,75.9,0,0,1-9.709,3.489,200.956,200.956,0,0,1-31.69,6.284c-8.155.949-18.5,1.62-21.5-.574-1.077-.789-4.246-3.113-4.665-24.815-19.247,2.011-66.9,6.161-78.317-.586a5,5,0,0,1-2.818-3.839q-.106-1.333-.214-2.646c-.206,1.437-.361,2.989-.519,4.568-.5,5.01-1.069,10.688-3.442,15.073-1.452,2.683-1.013,9.64,3.382,18.572a57.087,57.087,0,0,0,10.406,14.529m-24.933-9.19a28.878,28.878,0,0,0,4.149,4.177c1.327,1.161,3.944,2.179,7.728,3.045a20.576,20.576,0,0,0-5.763-4.546,24.283,24.283,0,0,0-6.115-2.676m197.487.37c.127.289.892,1.315,5.446,3.659a10.211,10.211,0,0,1-.619-3.362c-.683-14.582,7.758-38.271,12.336-41.167a2.05,2.05,0,0,1,2.142-.177,2,2,0,0,1,.419.3,9.645,9.645,0,0,1,3.226-1.278q-.1-.167-.211-.328c-1.681-2.484-3.1-2.408-4.02-2.133-3.535,1.051-8.14,8.135-12.318,18.949-3.6,9.323-6.288,20.042-6.4,25.539m14.312-31.646c-.845,1.949-1.753,4.307-2.673,7.093-3.045,9.219-4.617,18.235-4.313,24.734.109,2.321.63,2.993.8,3.046.31.1,1.8-.436,4.423-4,6.247-8.482,14.522-28.679,11.435-38.885a7.308,7.308,0,0,0-3.294,1.275,13.019,13.019,0,0,1,.1,1.342,79.074,79.074,0,0,1-1.3,15.83c-1.542,8.344-2.8,8.42-3.555,8.465-1.033.064-1.631-.74-1.782-2.383-.023-.242-.05-.523-.082-.836-.323-3.243-.984-9.88.236-15.677m-28.934-11.833a9.712,9.712,0,0,0-.242,1.184c-.736,4.907-1.282,22.444-1.871,43.782q.391-.157.7-.314c4.583-2.327,5.923-9.553,6.241-15.2a79,79,0,0,0-1.653-19.541c-1.174-5.648-2.437-8.718-3.176-9.907M498.24,398.428a1.664,1.664,0,0,0,.436,1.343,13.1,13.1,0,0,0-.436-1.343m102.669-.052h0Zm-102.279-.74h0Zm-203.35-36.27c.23,11.3,1.212,21.309,3.609,23.066,3.529,2.587,31-.177,51-6.092a66.307,66.307,0,0,0,10.533-3.915c.363-8.831.735-16.824,1.051-23.373-16.733,3.705-40.5,7.487-65.216,10.206l-.974.106m116.813,1.5c-2.639,4.728-2.356,12.423-1.961,17.142a75.343,75.343,0,0,0,1.961-17.142M364,350.48c-.3,6.287-.664,13.968-1.018,22.483a5.792,5.792,0,0,0,2.36-2.357c1.332-3.506,1.212-12.194.576-20.576-.627.15-1.265.3-1.918.451m-150.594-2.186c.144,1.945.3,3.9.467,5.894q.114,1.4.229,2.822c.052.655.59,1.289,1.6,1.885,7.458,4.409,36.822,4.481,77.008.229,0-.339-.005-.681-.007-1.029-.029-5.63.122-11.446.333-16.479-42.442,1.86-76.313,4.706-79.076,6.124a3.7,3.7,0,0,0-.55.554m234.364-8.149c4.527,2.036,9.268,4.563,14.119,7.15,2.549,1.359,5.185,2.764,7.834,4.123l1.178.6c15.028,7.714,20.406,10.045,23.96,3.432a13.182,13.182,0,0,0,.8-2c.094-3.242.233-6.66.414-10.133.488-9.4,1.987-32.266,5.358-41.5.854-2.339,1.457-3.168,2.389-3.287a1.481,1.481,0,0,1,1.418.663c.328.478.94,1.368.272,9.757-.27,3.4-.714,7.535-1.283,11.994a10.535,10.535,0,0,1,.884-.882,8.585,8.585,0,0,1,6.982-2.134c8.278,1,27.035,2.918,44.825,3.811,17.824.894,27.239.387,32.2-.458a67.137,67.137,0,0,1-.7-10.526,48.459,48.459,0,0,0-.851-11.129c-8.5-1.162-21.279-2.586-33.953-3.739-18.183-1.655-29.833-2.192-35.352-2.038-.981,1.8-1.79,2.365-2.69,2.474-1.585.193-2.5-1.42-2.838-2.026a1.536,1.536,0,0,1,.105-1.707c.318-.419.708-.932,3.823-1.156,2.214-5.058,5.471-16.57,7.05-22.155a284.23,284.23,0,0,0,5.829-28.371,1.6,1.6,0,0,1-.49-.068c-1.374-.41-1.466-2.089-1.15-5.465.353-3.777,1.09-9.352,1.87-15.254.8-6.019,1.8-13.611,2.163-18.082-1.257,2.461-2.9,5.856-4.6,9.374-3.214,6.646-6.856,14.177-9.515,18.824-4.732,8.269-28.137,62.533-28.71,73.882a31.216,31.216,0,0,0,.213,5.841l.741.2c1.956.527,2.481.669,2.728,1.485a1.5,1.5,0,0,1-.408,1.458c-.175.2-.373.427-.155,1.288.144.565.58,2.282-.463,3.113a1.588,1.588,0,0,1-1.756.134c-1.137-.584-2.244-2.6-2.887-5.688-1.53-.429-3.58-1.026-6.346-1.886-7.213-2.246-12.677-3.6-17.5-4.8-1.631-.4-3.163-.786-4.636-1.169a16.139,16.139,0,0,1,1.6,7.513c-.154,10.415-4.523,24.373-12.477,28.536m-152.255,1.364c-.218,5.359-.341,11.454-.277,17.343l.739-.081c25.021-2.753,49.011-6.579,65.615-10.295.076-1.561.148-3.024.214-4.378s.127-2.6.184-3.75c-2.218-.061-4.68-.107-7.41-.135-18.413-.186-40.847.541-56.426,1.185l-2.639.111m68.976-1.082c-.056,1.164-.118,2.432-.185,3.794-.057,1.149-.117,2.377-.18,3.676.538-.126,1.065-.251,1.586-.377-.22-2.486-.478-4.9-.749-7.076l-.471-.017m3.022.124c.318,2.6.553,5,.679,6.355a81.6,81.6,0,0,0,12.325-3.926,8.47,8.47,0,0,0,1.227-.653c-1.066-.5-4.322-1.307-14.232-1.777m-130.4-154.1c-7.327,20.492-12.162,55.987-16.073,84.688-1.849,13.571-3.445,25.291-4.97,32.823a144.935,144.935,0,0,0-2.872,41.393c1.619-.567,6.867-1.569,26.406-3.094,15.057-1.175,34.492-2.32,53.539-3.156.231-4.775.5-8.585.7-10.436a2.421,2.421,0,0,1,.932-1.65c2.739-2.209,11.974-1.312,28.061.465,15.756,1.74,35.364,3.9,39.412-.079a1.851,1.851,0,0,0,.585-1.618c-.148-1.569-1.279-3.209-3.362-4.873a31.044,31.044,0,0,0-5.422-3.353,100.378,100.378,0,0,1-19.68.314,115.955,115.955,0,0,1-25.753-5.323,52.743,52.743,0,0,1-6.354-2.593q-.551.822-1.015,1.563a6.252,6.252,0,0,1-5.561,3.027h-.111c-8.133-.108-20.395-12.229-23.393-17.316-1.614-2.739-.33-6.609,2.447-10.83-.188-.471-.393-.987-.619-1.554-.93-2.339-2.2-5.543-4.051-10.063-3.677-9-7.225-26.457-10.227-43.7,1.173,7.748,2.266,15.332,2.863,21.411,1.117,11.35.224,14.3-1.462,15.239-.7.387-1.851.57-3.406-.76-5.005-4.276-9.879-11.857-13.724-21.345a102.245,102.245,0,0,1-7.23-32.326c-.461-8.275-.811-17.595.343-26.854m59.208,142.53c-.254,2.456-.5,5.954-.7,10.018,16.252-.691,46.018-1.735,66.483-1.158.106-2.246.18-3.933.211-4.956a15.179,15.179,0,0,1,.234-2.66c-6.446,3.451-23.479,1.57-40-.253-6.755-.746-13.135-1.451-18.027-1.675-6.826-.311-8.027.5-8.208.685m135.537,9.182c1.121.161,2.376.31,3.7.43a23.214,23.214,0,0,0-3.7-.43m-67.25-.241h.018c0-.032-.009-.064-.013-.1,0,.032,0,.063,0,.1m57.844-3.239q-.142.268-.306.535c.509-.174.94-.33,1.3-.468-.31-.025-.644-.047-1-.067M503.3,304.173c-1.629,5.524-3.075,15.869-4.065,28.939a42.29,42.29,0,0,1,1.652-6.147c.009-.067.019-.134.029-.2,1.463-10.154,2.236-18.167,2.384-22.591m-85.148,27.865c.984.018,1.873.039,2.675.066q.062-.2.116-.407a12.638,12.638,0,0,0-.8-7.895,14.5,14.5,0,0,1-2.867-3.857,1.291,1.291,0,0,1,.628-1.42c.912-.5,1.652.225,2.247.81a11.06,11.06,0,0,1,2.147,3.154c3.338,3.582,9.167,8.721,13.862,9.07,1.465.108,1.993-.181,2.069-.349.475-1.064-1.712-4.726-6.186-9.6q-.164-.129-.32-.256a47.976,47.976,0,0,1-3.812-3.4c-1.7-1.718-1.715-2.074-1.727-2.452a1.294,1.294,0,0,1,.754-1.2c.879-.39,1.538.19,2.945,1.542,1.3,1.251,2.644,2.6,3.922,3.968a44.3,44.3,0,0,0,11.429,6.637c2.14.8,2.868.568,2.934.468.006-.009.379-.645-.595-3.031l-.106.021c-7.4,1.4-13.317-8.145-15.646-14.005-1.087-2.736-2.6-7.523-.527-8.853,1.651-1.058,3.587.972,4.223,1.64,2.073,2.176,9.539,10.81,13.18,17.721a2.26,2.26,0,0,0,.206-.541c.757-2.986-2.283-9.592-8.341-18.125-5.2-7.326-11.438-14.319-14.234-16.6s-4.324-1.1-7.516,1.769c-2.571,2.313-5.772,5.191-10.7,5.469-2.247.128-3.758-.431-4.49-1.658-1.357-2.277.644-5.672,2.366-8.472-5.768,1.871-19.109,3.859-35.14.84-.36,1.681-.85,2.3-1.687,2.442-1.454.242-2-1.5-2.231-2.236q-.172-.548-.343-1.115a89.651,89.651,0,0,1-8.615-2.519c-10.922-3.8-18.435-8.8-23.681-13.67a44.676,44.676,0,0,1-5.529,9.9c-2.533,3.3-5.761,7.31-9.178,11.56-4.228,5.258-8.8,10.944-12.536,15.881a189.926,189.926,0,0,1,21.513,3.493c6.788,1.488,17.745,4.27,25.9,8.181,5.241-.561,10.259-1.362,14.783-2.084,11.134-1.777,19.178-3.061,22.513.2a31.816,31.816,0,0,1,3.749,4.71c3.3-3.216,6.963-5.266,10.209-5.467a6.735,6.735,0,0,1,6.378,3.2c.3.46.611.934.93,1.418,3.386,5.14,7.224,10.965,5.329,14.707q-.092.182-.2.353m-8.846-.133c1.537.035,3,.055,4.311.071a3.285,3.285,0,0,0,2.5-1.421c1.239-2.447-2.475-8.084-5.186-12.2-.322-.488-.637-.967-.939-1.431a4.262,4.262,0,0,0-4.126-2.066c-2.758.171-6,2.1-8.944,5.081l.07.1c3.335,5.013,7.053,10.6,12.312,11.862M395.2,321.854a32.581,32.581,0,0,0-4.166,6.47c-.237.487-.123.67-.063.769.975,1.58,6.48,2.273,12.377,2.594-3.223-2.521-5.781-6.278-8.148-9.832m37.535-18.34c-.029,2.084,1.939,8.3,5.792,13.194,1.872,2.378,4.72,5.063,7.919,4.808-.582-1.086-1.347-2.38-2.349-3.916A100.378,100.378,0,0,0,433.7,304.408a8.012,8.012,0,0,0-.974-.893M590.175,300a52.732,52.732,0,0,1,.747,10.812,64.444,64.444,0,0,0,.652,9.941,6.957,6.957,0,0,0,2.467-1.089.906.906,0,0,0,.367-.5c.278-3.091,1.788-6.147,3.163-8.864q.213-2.666.429-5.18.149-1.765.286-3.427a9.328,9.328,0,0,0-1.7-.577c-1.22-.3-3.445-.683-6.407-1.116M303.7,307.879c5.327,2.569,16.156,6.09,30.909,7.505a89.726,89.726,0,0,0,14.717.074C335.4,309.9,314.77,306.4,305.274,305.7q-.83,1.128-1.574,2.177m-27.915-18.655c-1.742,2.977-2.292,5.3-1.446,6.738,2.8,4.751,14.4,15.994,21.27,16.084a3.733,3.733,0,0,0,3.517-1.851q.44-.7.958-1.48c-1.522-1.009-2.525-2.082-2.543-3.16-.015-.909.5-2.062,3.063-2.394a21.528,21.528,0,0,1,3.473-.048c3.927-5.262,8.944-11.5,13.555-17.236,3.409-4.239,6.628-8.243,9.144-11.517a42.226,42.226,0,0,0,5.566-10.272,51.05,51.05,0,0,1-4.362-5.119c-4.018,5.395-9.38,14.063-14.257,21.946-11.862,19.174-14.141,22.173-16.256,21.386-1.5-.558-1.169-2.633-1.01-3.63a163.611,163.611,0,0,1,4.629-18.175c1.12-3.811,2.447-8.331,2.891-10.781-2.3,2.632-4.365,8.433-6.368,14.043-3.024,8.473-5.636,15.79-9.81,16.509-1.723.3-3.429-.574-5.07-2.588a42.46,42.46,0,0,0-4.579-4.989,7.7,7.7,0,0,1-2.366-3.466m24.5,16.539a6.536,6.536,0,0,0,1.2.914c.253-.359.516-.728.786-1.1a11.142,11.142,0,0,0-1.344.069,5.1,5.1,0,0,0-.64.119m289.283-8.38c3.538.5,6.2.952,7.61,1.3a13.529,13.529,0,0,1,1.313.391,72.894,72.894,0,0,0,.091-14.43c-.907-6.777-3.122-10.112-5.467-13.643a32.822,32.822,0,0,1-5.987-14.27c-1.171-6.854-2.516-26.667-2-46.038.656-24.489,3.833-39.116,9.441-43.475,6.082-4.726,16.225-8.572,26.455-5.189,5.1,1.687,11.5,5.695,16.59,14.989-4.009-9.129-8.451-15.705-13.117-18.915-15.26-10.495-29.8-12.439-41.281-5.61-.5,3.612-.884,7.131-1.1,10.431-.625,9.381-9.682,26.163-18.44,42.392-9.183,17.015-18.679,34.61-16.489,40.3a2.227,2.227,0,0,0,1.419,1.39c5.661,2.008,11.178,1.807,15.205,1.66,3.641-.132,6.043-.22,6.986,1.45.854,1.512-.188,3.493-1.44,5.409-2.486,3.8-8.8,6.289-14.373,8.485a62.564,62.564,0,0,0-6.43,2.786c-2.064,1.13-2.106,1.72-2.1,1.784.005.171.3,1.755,9.043,4.587,13.3,4.31,22.106,7.881,27.76,13.384a23.237,23.237,0,0,1,6.315,10.833M441.917,295.13a75.442,75.442,0,0,0,7.229,3.337q.628.249,1.247.48a40.143,40.143,0,0,0-8.476-3.817m-137-29a1.571,1.571,0,0,1,.768.2c1.706.938,1.149,3.471-2.2,14.865a165.462,165.462,0,0,0-4.524,17.648c2.636-3.093,8.1-11.925,12.632-19.251,5.31-8.584,10.758-17.39,14.87-22.777-1.323-1.979-2.291-3.711-3.034-5.04l-.169-.3a2.592,2.592,0,0,1-.194-2.426c.855-1.889,3.953-2.549,8.642-3.549,8.494-1.811,20.126-4.291,21.633-14.71,1.223-8.457,1.541-18.23,1.877-28.577.382-11.757.816-25.082,2.659-39.11.566-4.305,2.148-6.9,4.706-7.71a5.475,5.475,0,0,1,.657-.164c-1.462-4.184-2.5-5.041-2.838-5.214l-.23-.117a39.278,39.278,0,0,0-8.683-3.546,45.134,45.134,0,0,1-.226,5.283,198.194,198.194,0,0,1-3.079,20.169c-3.381,17.3-3.1,25.212-2.526,40.977q.014.4.029.811a38.1,38.1,0,0,1,1.817,6.548,66.424,66.424,0,0,1,1.033,11.735c-.047,5.506-.891,6.148-1.252,6.422a1.422,1.422,0,0,1-1.479.156c-.713-.341-1.905-.912-2.292-14.785-.1-3.518-.21-6.708-.313-9.575-2.609-6.881-7.267-14.269-12.807-23.057a339.618,339.618,0,0,1-17.058-29.377c-14-27.808-17.373-30.75-22.124-33.554-4.844-2.861-16.324,6.243-33.279,21.859a59.854,59.854,0,0,0-6.86,7.448c5.264-5.765,10.966-9.7,16.531-11.13,5.213-1.343,9.943-.391,13.681,2.753,6.5,5.473,15.577,29.995,22.041,49.6,7.188,21.8,13.036,43.446,13.085,46.829v.117c.09,6.187-.322,6.508-10.9,14.737-1.2.932-2.533,1.971-4.02,3.136-11.139,8.73-19.609,17.012-24.06,23.23,1.254,3.1,1.44,3.268,2.407,4.161a45.2,45.2,0,0,1,4.82,5.246c1.029,1.262,1.94,1.837,2.706,1.7,2.733-.47,5.586-8.462,7.878-14.884,2.18-6.109,4.24-11.88,6.855-14.864.621-.709,1.68-1.918,2.81-1.918m215.624,25.19c1.6,0,3.556.041,5.942.134,6.652.259,15.709.893,26.193,1.834,12.623,1.133,25.385,2.537,34.193,3.718-3.376-10.414-12.659-15.149-32.145-21.463-7.576-2.455-10.7-4.451-10.773-6.89-.092-2.951,4.191-4.639,10.118-6.975,5.225-2.059,11.146-4.393,13.2-7.527,1.255-1.919,1.349-2.616,1.344-2.8-.534-.341-2.841-.257-4.7-.19-4.228.154-10.021.366-16.133-1.8a4.687,4.687,0,0,1-2.918-2.85c-2.6-6.764,6.305-23.272,16.622-42.387,8.632-15.994,17.557-32.532,18.146-41.37.178-2.683.465-5.5.83-8.4-7.2,5.54-12.75,16.771-19.732,30.9-3.576,7.239-7.63,15.445-12.424,23.838-4.475,7.832-7.961,14.426-10.762,19.724-1.966,3.718-3.518,6.655-4.69,8.635q-.141.239-.278.467c-1.965,12.223-4.144,23.907-6.443,32.036-3.14,11.1-5.159,17.6-6.694,21.368q.526-.007,1.112-.007M253.4,185.1c1.282,0,1.532,1.427,2.363,6.163.573,3.266,1.312,7.935,2.168,13.342,3.3,20.835,8.819,55.706,14.349,69.238,1.851,4.53,3.128,7.74,4.06,10.085l.02.05c6.745-8.868,18.642-18.6,23.6-22.482,1.49-1.167,2.827-2.208,4.027-3.142,5.155-4.011,7.742-6.025,8.945-7.61,1.041-1.373,1.025-2.468.986-5.115v-.118c-.041-2.853-5.5-23.461-12.96-46.082-8.865-26.886-16.619-44.553-21.276-48.471-3.092-2.6-7.05-3.378-11.445-2.245-9.285,2.393-19.059,12.431-26.259,26.511-3.6,11.95-3.433,24.807-2.7,37.948,1.32,23.7,11.331,44.433,20.081,51.908a2.444,2.444,0,0,0,.61.412c.322-.439,1.167-2.629.093-13.231-.772-7.618-2.3-17.574-3.778-27.2-2.025-13.2-4.12-26.842-4.353-34.984-.1-3.419-.138-4.834,1.286-4.967.064-.006.126-.009.186-.009m115.177,94.967.2.044c.5-4.694,1.021-15.641.989-40.947-3.964,3.737-5.544,5.126-6.4,5.568-.4,1.008-.511,5.45.768,14.256a168.6,168.6,0,0,0,4.441,21.079M335.237,263.5c5.033,4.864,12.416,9.917,23.557,13.791,2.366.823,4.7,1.519,7,2.105a172.307,172.307,0,0,1-4.312-21.328A85.412,85.412,0,0,1,360.6,248c-.035-3.53.431-5.088,1.66-5.515a96.616,96.616,0,0,0,7.5-6.764q-.006-1.977-.016-4.067c-.118-23.527-.614-46.7-.646-48.142a229.981,229.981,0,0,0-4.395-23.428c-.233-.89-.461-1.7-.68-2.441a3.361,3.361,0,0,0-.675.138c-1.55.491-2.553,2.392-2.981,5.65-1.827,13.906-2.258,27.166-2.639,38.865-.339,10.419-.659,20.259-1.9,28.853-1.757,12.145-14.894,14.946-23.588,16.8-2.564.547-6.424,1.37-6.871,2.111a.794.794,0,0,0,.085.2l.17.3c.662,1.185,1.463,2.618,2.488,4.216a22.515,22.515,0,0,1,1.739-1.854c2.616-2.435,4.657-3.021,6.065-1.739,1.872,1.7,1.252,6.814-.672,12.32m103.924-28c-2.614,6.135-7.868,21.351-4.967,26.578a2.879,2.879,0,0,0,2.376,1.562c3.646.4,7.908-.876,12.422-2.937-3.252-4.066-5.705-12.092-7.808-18.97-.689-2.254-1.441-4.714-2.023-6.234m-40.853-2.362a1.457,1.457,0,0,1,1.054.437c1.077,1.015.068,2.611-.474,3.468a62.335,62.335,0,0,1-5.662,7.049c-3.4,3.868-7.63,8.682-6.989,10.929.177.619.853,1.11,2.01,1.46,1.358.41,3.02.981,4.944,1.641,8.223,2.823,21.986,7.547,28.084,4.421a5.264,5.264,0,0,0,2.758-3.327c1.421-4.714.07-10.057-1.36-15.714-1.919-7.591-3.9-15.441.558-22.756a86.317,86.317,0,0,1,5.758-8.453c-2.836-.734-6.286-2.453-10.876-5.763-5.306-3.825-12.753-11.907-20.637-20.465-10.551-11.452-23.3-25.283-30.723-27.979q.182.652.368,1.36a234.064,234.064,0,0,1,4.465,23.8,1.354,1.354,0,0,1,.01.135c.005.25.55,25.187.655,49.966,14.814-14.032,17.435-15.7,19.1-14.45,1.273.957.44,2.849-.441,4.547-2.533,4.884-5.912,10.1-8.892,14.71-2.041,3.153-4.474,6.913-5.437,8.923a120.576,120.576,0,0,0,10.725-7.208c6.868-4.931,9.54-6.737,11-6.737m-68.743,23.791a47.664,47.664,0,0,0,3.692,4.543q.062-.2.122-.394c1.637-5.368,1.191-7.778.844-8.048h-.012c-.1,0-.852.036-2.661,1.721a22.63,22.63,0,0,0-1.985,2.177m126.822,2.806q-.713.393-1.424.776a3.566,3.566,0,0,0,1.424-.776M444.246,209.3c1.108,2.981,1.626,7.994,2.269,14.962.794,8.6,1.782,19.309,4.982,22.74,2.974,3.189,5.6,6.142,6.9,8.726,1.106-.637,2.212-1.283,3.313-1.927,3.3-1.93,6.717-3.925,10.009-5.606,12.012-6.132,45.307-38.123,50.754-47.636,5.012-8.748,7.1-19.391,5.8-21.7-.1-.184-.154-.186-.2-.187-1.386.086-11.241,4.387-20.773,8.547-20.331,8.872-48.175,21.023-57.419,21.295a25.129,25.129,0,0,0-5.641.788m-81.932,33.166-.025.008.025-.008m35.025-7.835h0ZM581.187,149.09c-2.3,1.816-5.13,3.814-8.261,6.02-2.244,1.582-4.566,3.217-6.967,4.98-12.529,9.194-23.283,19.021-25.015,22.86-.674,1.493-2.09,11.623-3.729,23.351-1.043,7.465-2.228,15.94-3.523,24.437.523-.983,1.07-2.017,1.632-3.08,2.809-5.314,6.306-11.928,10.8-19.8,4.756-8.328,8.792-16.5,12.353-23.706,7.3-14.773,13.062-26.441,21.015-32.2q.7-.507,1.415-.97.135-.945.279-1.9m-142.31,58.6a3.109,3.109,0,0,0-.368.022,7.972,7.972,0,0,0-4.056,2.277,25.329,25.329,0,0,0,4.092-1.372c.515-.2,1.042-.414,1.59-.621a2.694,2.694,0,0,0-1.257-.307m83.472-55.655a15.307,15.307,0,0,1,3.912.53,14.149,14.149,0,0,1,9.388,7.642,18.959,18.959,0,0,1,1.384,12.021c3.305-2.185,9.937-7.322,15.941-11.973,16.45-12.743,25.458-19.418,29.918-21.229.637-3.442,1.309-6.828,1.969-10.049-2.421,1.449-5.832,1.254-9.541-.587-5.085-2.524-10.188-7.992-9.928-12.776a30.9,30.9,0,0,1,.768-4.812c1.084-5.049,2.2-10.269-4.89-19.272-2.38-3.021-3.494-2.994-3.778-2.913-2,.563-2.9,8.268-3.44,12.871a44.77,44.77,0,0,1-1.316,7.858c-.446,1.3-.9,2.651-2.145,2.593-1.184-.059-1.441-1.153-1.83-2.809-.6-2.536-1.7-7.257-5.418-9.738-3.529-2.356-3.732-6.785-3.927-11.068-.3-6.6-.839-10.67-7.784-11.155-13.2-.919-28.623,4.269-31.2,15.693-2.863,12.7-3.55,51.264,4.744,59.072,4.5,4.241,6.709,3.3,10.046,1.878a17.293,17.293,0,0,1,7.128-1.776m-223.982-34.4c.6.327,1.183.659,1.751.993a64.249,64.249,0,0,1,18.059,15.407c5.931,7.675,8.624,14.538,10.787,20.053,2.373,6.048,4.087,10.418,8.774,12.763a3.282,3.282,0,0,0,3.068.25c3.218-1.651,4.563-10.038,5.453-15.588a49.834,49.834,0,0,1,1.162-5.952c-1.393-.2-2.952-.367-4.733-.5-8.706-.634-22.158-24.179-31.52-41.833-.368-.693-.676-1.275-.918-1.725-3.87-7.2-1.428-19.092,5.558-27.075,2.5-2.86,7.041-4.354,12.889-4.271q-5.886-1.138-11.032-2.582c-3.626,5.083-11.21,10.749-15.462,12.972a45.7,45.7,0,0,1,3.541,7.818c1.074,3.06,3.439,10.743,2.211,15.972-1.344,5.725-5.187,10.983-9.59,13.3m31.657-43.586c-2.393,0-5.91,2.38-9.7,6.628-2.241,2.509-3.232,4.649-3.031,6.543.311,2.928,3.493,5.248,6.862,7.705a43.759,43.759,0,0,1,4.947,3.983c4.335,4.281,3.988,7.832,3.507,12.746a54.038,54.038,0,0,0-.289,9.505c.26,3.945,2.66,7.776,6.758,10.788a28.586,28.586,0,0,0,22.73,4.657c9.825-2.379,15.186-17.377,20.369-31.881,1.591-4.452,3.094-8.656,4.737-12.56a79.225,79.225,0,0,0,5.054-17.033,427.816,427.816,0,0,1-48.1-2.685q-2.042-.232-4.018-.492c4.033,1.246,7.264,3,8.451,4.8,2.652,4.032.386,7.084-2.484,10.948-1.13,1.521-2.41,3.246-3.7,5.354-.563.919-2.274,3.72-4.475,3.13-1.676-.449-3.645-2.653-3.991-15.826-.087-3.33-1.037-5.57-2.605-6.145a2.949,2.949,0,0,0-1.02-.17m-41.113,40.463h0m311.22-23.14c-.347,3.567-.819,6.789-1.271,9.414-.408,2.367.173,3.789,1.73,4.227,2.929.824,8.314-1.771,9.813-5.552a1,1,0,0,0-.178-.662c-.974-1.791-4.588-4.406-10.094-7.427M591.81,95.4c.2,1.917.31,3.677.346,5.226a20.508,20.508,0,0,0,.04-4.594,1.622,1.622,0,0,0-.385-.632M333.819,73.126c1.435,1.478,2.247,3.939,2.332,7.176.3,11.455,1.867,13.241,2.12,13.455.152-.062.722-.388,1.709-2,1.349-2.2,2.665-3.977,3.826-5.54,3.041-4.095,4.011-5.635,2.4-8.08-1.187-1.8-6.393-4.054-12.39-5.011m194.048-1.261q1.024,0,2.092.034c12.033.382,27.4,3.993,42.162,9.906a114.413,114.413,0,0,1,16.3,7.89c-.292-1.472-.646-2.993-1.069-4.543q-3.045-1.345-6.375-2.71c-16.607-6.8-34.855-12.533-48.814-15.324-35.278-7.05-51.125-5.172-56.524,6.7-1.379,3.031-1.087,5.625.892,7.931,4.657,5.427,16.95,7.273,18.992,6.905a15.651,15.651,0,0,0,.886-1.326c2.694-4.287,9.716-15.459,31.459-15.459M495.454,88.721h0Zm93.983-5.379c2.711,1.212,5.655,2.59,8.511,4.042.594-9.167.132-19.85-3.559-28.2-5.927-13.408-27.149-25.913-45.416-26.762-6.892-.325-15.877,2.926-24.646,8.908-7.828,5.34-12.929,11.187-13.338,13.754-.091.57.043.659.45.772,1.982.547,4.63-1.07,7.985-3.117,7.854-4.793,19.724-12.037,40.616-3.422,12.967,5.348,22.592,15.5,27.835,29.347.594,1.57,1.113,3.135,1.563,4.677M297.56,59.063c-.025.733-.043,1.463-.062,2.165-.129,5-.276,10.655-1.774,14.869a128.641,128.641,0,0,0,9.908-12.748,58.483,58.483,0,0,1-7.666-4.026q-.2-.129-.407-.26M319,65.358a167.5,167.5,0,0,0,25.148,4.606,427.5,427.5,0,0,0,48.215,2.667c.326-2.288.514-4.352.628-6.157-5.116.5-13.236.359-26.823.124l-1.378-.024a168.376,168.376,0,0,1-45.216-6.909q.109,1.356.132,2.941A6.335,6.335,0,0,1,319,65.358m76.52.773c-.107,1.879-.291,4.054-.624,6.482q3.139-.035,6.159-.127a152.982,152.982,0,0,0,19.915-1.662c7-1.2,7.513-2.526,7.524-2.559-.006,0-.109-.4-1.211-1.109-4.858-3.123-11.927-5.714-19.4-7.108-1.819-.34-3.445-.567-4.871-.709a9.912,9.912,0,0,1-1.065,2.9c-1.3,2.067-2.933,3.252-6.432,3.9m-86.094-3.914q3.34,1.308,7.134,2.442a4.342,4.342,0,0,0,.643-2.016,37.755,37.755,0,0,0-.232-3.811q-2.293-.764-4.363-1.562-.14.219-.287.46c-.813,1.332-1.8,2.866-2.9,4.487m9.789-5.348a163.274,163.274,0,0,0,45.617,7.2l1.379.024c14.281.247,22.239.356,26.9-.146.031-.864.048-1.64.064-2.323.023-1.035.042-1.853.1-2.429a2.283,2.283,0,0,1,1.451-1.841c1.231-.593,3.456-.817,6.26-.692a44.619,44.619,0,0,0-.261-11.908c-.971-6.7-3.644-16.412-10.862-24.672C376.12,4.351,347.891-.4,329.62,4.227c-13.035,3.3-20.421,18.6-24.834,27.742-2.65,5.491-3.981,8.246-5.946,8.389a13.072,13.072,0,0,1-4.481-.855c-1.866-.57-3.981-1.217-4.956-.509-.638.463-.994,1.653-1.028,3.441-.038,1.985.658,6.693,6.969,11.924.331-2.914,1.023-5.021,2.63-5.826,1.341-.67,2.961-.309,4.954,1.1a45.744,45.744,0,0,0,8.8,4.534c1.25-1.573,2.778-2.824,4.43-2.372,1.477.4,2.5,2.1,3.055,5.07m76.536,2.768c-.036.482-.052,1.185-.072,2.048-.013.562-.027,1.186-.048,1.869,2.29-.519,3.387-1.356,4.2-2.65a6.663,6.663,0,0,0,.678-1.74c-2.659-.1-4.266.164-4.759.473M297.7,56.145q.759.528,1.6,1.06a56.708,56.708,0,0,0,7.772,4.043c1.127-1.669,2.188-3.307,3.113-4.823l.065-.1a46.951,46.951,0,0,1-8.771-4.644c-1.088-.771-1.979-1.11-2.386-.907-.836.418-1.206,2.677-1.393,5.375m16.5-1.01q1.078.4,2.226.8c-.331-1.137-.693-1.663-.922-1.725-.005,0-.416-.035-1.3.922" transform="translate(0 -0.002)" fill="#fff"/>
    </g>
  </g>
</svg>
