<svg xmlns="http://www.w3.org/2000/svg" xmlns:xlink="http://www.w3.org/1999/xlink" width="260.688" height="57.492" viewBox="0 0 260.688 57.492">
  <defs>
    <clipPath id="clip-path">
      <rect id="Rectangle_1" data-name="Rectangle 1" width="260.688" height="57.492" fill="none"/>
    </clipPath>
  </defs>
  <g id="Group_6" data-name="Group 6" transform="translate(-121 -69)">
    <g id="Group_5" data-name="Group 5" transform="translate(121 69)">
      <g id="Group_2" data-name="Group 2">
        <g id="Mask_Group_1" data-name="Mask Group 1" clip-path="url(#clip-path)">
          <path id="Path_1" data-name="Path 1" d="M0,32.094V54.188L5.687,48.5V28.747a23.049,23.049,0,0,1,.135-2.475ZM26.408,16.266V10.512a18.247,18.247,0,0,0-5.689,1.708V33.469l5.689-5.689V16.266Zm2.514,30.861h21.87a28.9,28.9,0,0,0,3.714-5.683H34l0,0-1.834,1.833-3.242,3.243-.607.607h.606Zm12.519-20.72V16.047H31.081V10.361H47.127V26.408ZM51.8,20.72v5.688l5.686,0V0H31.078l0,5.686H48.446l3.354,0,0,3.354V20.72Zm-15.033,0h-5.69l0,5.688,5.686,0ZM23.641,51.8H45.853a28.536,28.536,0,0,1-17.108,5.691l-3.416-.006H17.955l-6.605,0H3.307l5.254-5.254.432-.432,4.672-4.672L24.023,36.771l2.631-2.631,0,0,3.053-3.053h8.045l-5.688,5.689-3.053,3.054-.1.094-.056.056L17.037,51.8ZM56.335,36.77a28.234,28.234,0,0,0,1.054-5.688H51.68l-4.7,0-2.881,0,.132.133L38.675,36.77h17.66Zm-45.975-9.5v-12.4q-.336.444-.652.9h0l-9.5,9.5A28.867,28.867,0,0,1,26.408.1V5.808A22.9,22.9,0,0,0,16.046,9.529V38.142L10.36,43.828V28.747c0-.5.021-.987.06-1.475Z" fill="#2491eb" fill-rule="evenodd"/>
        </g>
      </g>
      <g id="Group_4" data-name="Group 4">
        <g id="Group_3" data-name="Group 3" clip-path="url(#clip-path)">
          <path id="Path_2" data-name="Path 2" d="M296.878,102.358H300.5V85.245h6.484V81.916H290.395v3.329h6.483Zm22.545.35A10.474,10.474,0,0,0,330.14,92.137v-.058a10.69,10.69,0,0,0-21.378.058V92.2a10.377,10.377,0,0,0,10.66,10.513m.059-3.329a6.978,6.978,0,0,1-6.95-7.243v-.058a6.906,6.906,0,0,1,6.891-7.212,7,7,0,0,1,6.951,7.271V92.2a6.882,6.882,0,0,1-6.892,7.184m23.391,3.3c5.344,0,8.791-3.065,8.791-9.17V81.916H348.07V93.685c0,3.767-1.957,5.665-5.139,5.665-3.212,0-5.169-2.015-5.169-5.811V81.916H334.17V93.685c0,5.929,3.388,8.994,8.7,8.994m23.421.029a13.032,13.032,0,0,0,8.527-3.183V90.94h-8.7v3.124h5.227V97.89a8.347,8.347,0,0,1-4.936,1.548c-4.175,0-6.95-3.1-6.95-7.3v-.058c0-3.912,2.862-7.212,6.629-7.212a8.011,8.011,0,0,1,5.724,2.19l2.278-2.716a11.036,11.036,0,0,0-7.856-2.775,10.415,10.415,0,0,0-10.542,10.572V92.2a10.143,10.143,0,0,0,10.6,10.513m13.2-.35h3.591V93.743h9.754v8.615h3.591V81.916h-3.591v8.5h-9.754v-8.5h-3.591Zm30.956,0h14.339V99.087H414.041V81.916H410.45Zm18.076,0h15.3V99.146H432.117V93.655h10.251V90.443H428.526Zm3.591-17.23h11.564V81.916H428.526v3.212Zm14.222,17.23h3.679c3.156-7.406,3.442-8.177,6.922-16.3,3.722,8.613,3.4,7.9,6.921,16.3h3.8l-9-20.588h-3.329Zm24.823,0h3.591V94.035h10.308V90.764H474.754V85.187h11.623V81.916H471.163Z" transform="translate(-225.689 -63.391)" fill="#101929" fill-rule="evenodd"/>
        </g>
      </g>
    </g>
  </g>
</svg>
