<svg id="Group_22779" data-name="Group 22779" xmlns="http://www.w3.org/2000/svg" xmlns:xlink="http://www.w3.org/1999/xlink" width="624.018" height="523.591" viewBox="0 0 624.018 523.591">
  <defs>
    <clipPath id="clip-path">
      <rect id="Rectangle_4433" data-name="Rectangle 4433" width="624.018" height="523.591" fill="#fff"/>
    </clipPath>
  </defs>
  <g id="Group_22780" data-name="Group 22780" transform="translate(0 0)" clip-path="url(#clip-path)">
    <path id="Path_10637" data-name="Path 10637" d="M0,406.1c28.908.46,51.63,1.115,67.534,1.946,7.2.376,13.119.8,17.636,1.248-.838,5.309.777,10.662,4.809,15.922,13.808,18.014,53.65,32.183,84.643,40.9,36.877,10.369,72.794,16.317,85.458,17.072,21.634,1.289,38.813,2.312,60.769,8.147a9.172,9.172,0,0,0-.711,4.268c.232,2.343,1.627,4.217,4.147,5.571,5.857,3.146,31.458,12.969,60.057,18.614a179.291,179.291,0,0,0,34.124,3.809q3.25,0,6.265-.186c13.717-.844,23.661-4.606,29.554-11.179a23.814,23.814,0,0,0,6.508-15.387,30.921,30.921,0,0,0-3.907-15.13,66.654,66.654,0,0,0-10.21-14.049q-1.41-1.689-3.074-3.391a86.229,86.229,0,0,0-11.423-9.642c-2.787-2.1-2.963-2.081-3.425-2.028a1.252,1.252,0,0,0-1.068.941c-.213.855.365,1.255,1.034,1.718q1.2.827,2.312,1.638a112.211,112.211,0,0,1,11.512,10.06c.666.67,1.348,1.378,2.039,2.12,5.389,6.387,7.056,11.639,7.274,15.461.323,5.663-2.33,11-7.884,15.853-10.5,9.181-24.935,12.695-44.142,10.739-18.41-1.874-38.065-8.529-53.131-14.117q-4.995-1.852-9.63-3.4a9.834,9.834,0,0,0,5.938-2.427c4.208-3.771,8.494-10.919,11.1-16.35a50,50,0,0,0,3.319-8.59c.8-3.047.725-4.977-.224-6.073a2.513,2.513,0,0,0-.513-.455,111.924,111.924,0,0,0,24,.277,154.266,154.266,0,0,0,31.916-6.071,88.456,88.456,0,0,0,21.792-9.949q.417-.272.828-.549a28.154,28.154,0,0,0,2.762,4.313,43.12,43.12,0,0,0,15.9,12.24,65.594,65.594,0,0,0,26.154,5.854,23.055,23.055,0,0,0,13.68-4.13,40.594,40.594,0,0,0,10.744-11.238c6.485-9.631,11.771-23.892,14.5-39.125a121.324,121.324,0,0,0,1.585-12.248c1.975.225,4.231.434,6.81.624,9.742.716,23.012,1.055,39.439,1.006,27.942-.083,55.74-1.274,56.018-1.286a1.251,1.251,0,1,0-.108-2.5c-.277.012-28.031,1.2-55.923,1.284-16.363.049-29.567-.288-39.244-1q-3.771-.277-6.836-.632c.36-7.357-.242-13.375-1.8-16.923a14.2,14.2,0,0,0-3.475-5.209c-.294-4.1-.535-9.3-.73-15.794-.454-15.1-.587-34.5-.727-55.039-.241-35.217-.49-71.634-2.437-88.18-3.194-27.152-6.736-50.265-17.77-58.1a15.427,15.427,0,0,0-1.851-1.129c-2.092-2.338-6.4-4.878-13.568-8.066-12.056-5.361-19.765-8.08-25.393-10.066-5.649-1.993-9.381-3.309-13.7-5.911q-.336-.2-.666-.415c.1-.72.162-1.376.195-1.96.109-1.93-.116-3.072-.729-3.7-1.231-1.264-2.952-1.117-4.617-.974a18.772,18.772,0,0,1-2.409.1c-.5-.549-.936-1.049-1.291-1.472q-.605-.72-1.1-1.369a10.494,10.494,0,0,0-.235-2.876c-.479-2.006-1.589-3.391-2.97-3.7a1.68,1.68,0,0,0-2.056.958c-.564,1.4.94,4.009,2.708,6.4-.006.049-.012.1-.019.149a13.625,13.625,0,0,1-1.837-1.843,55.572,55.572,0,0,1-9.783-18.352,92.765,92.765,0,0,0,1.29-11.771c1.722-5.13,2.6-9.068,2.472-10.576-.18-2.066-1.221-2.305-1.826-2.264a1.405,1.405,0,0,0-.6.152A250.687,250.687,0,0,0,413.051,51.2a8.429,8.429,0,0,1,1.4.482,10.528,10.528,0,0,1,4.991,4.7c-.375,3.073-.869,5.555-1.281,7.625-.829,4.166-1.377,6.919.552,9.076a2.236,2.236,0,0,0,2.516.776c2.476-.9,2.827-6.019,2.875-7.565a22.4,22.4,0,0,0-2.083-10.419,93.557,93.557,0,0,0,.02-19.19c-.708-7.688-3.53-13.6-8.387-17.567-5.848-4.778-13.029-5.429-16.506-5.429h-.072A9.3,9.3,0,0,0,396.49,6.5c-2.12-3.8-7.261-5.957-15.281-6.4-13.4-.737-25.19,2.892-34.66,5.807-5.457,1.68-10.17,3.131-13.757,3.268a30.519,30.519,0,0,1-10.7-1.9c-2.73-.875-4.533-1.453-5.782-.39-1.016.865-.928,2.326-.773,3.35.522,3.445,3.342,5.975,5.4,7.822.462.414,1.038.931,1.405,1.323a30.581,30.581,0,0,1-4.615.578c-3.355.261-6.252.486-7.147,2.264a2.822,2.822,0,0,0,.361,2.887c1.388,2.211,4.353,3.22,6.736,4.031.551.187,1.229.418,1.722.625-.541.367-1.131.741-1.753,1.134-2.853,1.806-5.548,3.512-5.631,5.774a3.331,3.331,0,0,0,1.586,2.813,11.045,11.045,0,0,0,5.417,1.728,6.3,6.3,0,0,1,2.161.481,2,2,0,0,1-.206.968,11.152,11.152,0,0,1-1.347,2.466c-1.634,2.435-2.587,4.518-1.526,11.449a12.736,12.736,0,0,0,.1,4.335c.415,1.769,1.429,1.757,1.844,1.67,1.49-.312,1.251-2.313.878-4.335q-.163-.886-.288-1.671a18.607,18.607,0,0,1,1.57-5.121c2.931-6.279,10.7-14.878,31.074-20.188a129.053,129.053,0,0,1,20.4-3.772,11.094,11.094,0,0,0-.154,1.734,88.918,88.918,0,0,1-11.249,7.2c-5.831,3.12-12.975,5.036-19.279,6.726-10.159,2.724-18.932,5.077-20.529,11.544-2.5,10.109,7.916,47.037,17.227,66.2a70.379,70.379,0,0,0,4.608,8.2,26.84,26.84,0,0,0-2.484,6.735,22.426,22.426,0,0,0-9.526,1.391c-23.3,8.943-34.413,13.814-35.642,19.822-.1.475-.235,1.369-.4,2.6a5.488,5.488,0,0,0-1.36-1.419c-.918-.632-2.8-1.356-5.138.9-4.262,4.12-13.626,24.41-27.832,60.307-10.539,26.631-19.981,52.416-20.076,52.673a1.251,1.251,0,0,0,.852,1.638c.064.017,4.852,1.285,11.055,2.325-16.666.116-34.9.593-48.233,1.01-38.719,1.212-83.083,3.42-87.412,4.775a1.6,1.6,0,0,0-1.048.826c-.244.535-.4.889,1.71,6.468,1.23,3.244,3.026,7.7,5.338,13.243,4.711,11.3,11.033,25.823,17.344,39.851.708,1.574,1.507,3.343,2.379,5.265a14.191,14.191,0,0,0-2.535-.885c-6.936-1.672-14.605-.013-22.178,4.794-7.459,4.735-14.485,12.308-20.321,21.9A111.044,111.044,0,0,0,85.67,406.832c-4.244-.431-9.712-.831-16.316-1.192-15.593-.853-38.11-1.526-66.925-2m451.577,78.025a33.216,33.216,0,0,1,4.029,11c1.012,6.59-.877,12.609-5.612,17.892-12.663,14.126-43.748,11.479-67.6,6.772-27.95-5.517-53.787-15.372-59.358-18.364-1.765-.948-2.695-2.13-2.841-3.614a7.01,7.01,0,0,1,.66-3.359c6.93,1.923,14.35,4.327,22.542,7.366,15.205,5.64,35.056,12.357,53.747,14.26a79.409,79.409,0,0,0,24.995-1,46.847,46.847,0,0,0,21.047-10.348c6.165-5.391,9.1-11.406,8.735-17.878a20.2,20.2,0,0,0-.347-2.735m-98.673-19.829c.43.618.147,4.369-3.482,11.925-3.146,6.55-7.273,12.659-10.514,15.563-3.445,3.089-9.5,1.84-16.041-.831a50.075,50.075,0,0,1,5.073-5.976,220.418,220.418,0,0,1,17.143-15.162c1.323-1.092,2.572-2.123,3.771-3.124,2.857-2.387,3.881-2.411,4.05-2.395m-48.181,20.459c1.338.685,2.721,1.413,4.124,2.151,2.335,1.229,4.734,2.491,7.132,3.671-20.707-5.194-37.4-6.188-58.179-7.426-12.555-.749-48.229-6.664-84.929-16.983-19.885-5.591-36.883-11.573-50.522-17.78-16.072-7.314-27.112-14.794-32.812-22.23-3.627-4.731-5.073-9.482-4.3-14.131,5,.587,6.879,1.127,7.57,1.415a8.107,8.107,0,0,0,.318,5.9c3.283,7.3,17.243,12.525,38.376,20.439,6.289,2.355,13.416,5.024,20.854,7.988,4.21,1.677,7.052,2.756,8.944,3.395,2.1.709,3.758,1.268,4.424.008s-.718-2.262-2.317-3.429c-1.361-.993-3.375-2.35-5.707-3.922-11.229-7.568-32.13-21.656-37.526-33.563-.557-1.228-.7-2.153-.373-2.475.229-.228,1.327-.895,5.837.107a97.765,97.765,0,0,1,13.4,4.411c10.8,4.212,24.643,10.56,39.3,17.281,27.626,12.668,56.192,25.767,71.454,28,8.639,1.263,12.865.714,14.13-1.837,1.8-3.631-3.489-9.08-12.992-18.4-6.814-6.682-14.539-14.255-18.009-20.827-2.17-4.11-1.649-5.255-1.438-5.508.352-.422,1.65-.981,6.38.027,3.828.816,8.932,2.427,14.841,4.294,10.4,3.284,23.343,7.371,36.907,9.548a45.435,45.435,0,0,0,9.976.526q.415.217.838.421A23.831,23.831,0,0,0,307.9,427.2c1.677.845,4.1.434,7.36-1.259a23.328,23.328,0,0,0,10.637-3.365c3.571-2.142,9.589-7.4,17.917-14.673,5.321-4.648,11.421-9.976,18.085-15.535,7.132-3.732,15.5-8.454,23.423-13.276,8.064-4.908,14.934-9.48,19.864-13.221,8.1-6.149,9.311-8.76,9.515-10.189.008-.056.014-.112.019-.168,10.55-5.491,21.23-9.64,31.574-11.478a55.62,55.62,0,0,1,15.214-.63c3.784,2.141,8.588,4.689,13.495,6.964q10.916,5.06,18.227,6.466c1.095.866,2.133,1.737,3.112,2.6a84.284,84.284,0,0,1,13.394,15.017,7.715,7.715,0,0,0-1.224,1.365c-2.963,4.133-4.436,13.226-1.9,18.756.661,1.439,2.7,3,11.448,4.208a118.623,118.623,0,0,1-1.557,12.118c-2.673,14.9-7.817,28.816-14.115,38.169-6.532,9.7-14.029,14.5-22.277,14.264-17.249-.5-32.258-6.9-40.148-17.121a25.594,25.594,0,0,1-2.68-4.237c8.514-6.263,14.107-13.852,15.52-21.181.945-4.9-.714-6.325-2.271-6.655-4.957-1.051-15.253,9.98-17.214,18.444a14.77,14.77,0,0,0,.866,8.525q-.571.391-1.157.773c-12.622,8.226-30.8,13.629-52.571,15.626-21.672,1.986-37.13-2.317-46.282-6.277a60.754,60.754,0,0,1-7.743-4.008,16.541,16.541,0,0,0-6.27-7.619c-1.261-.737-2.837-1.468-3.852-.569a1.794,1.794,0,0,0-.3,2.214c.723,1.671,3.624,4.616,8.439,7.683a28.732,28.732,0,0,1,1.88,13.6c-.485,4.617-2.585,12.789-11.192,15.639a33.367,33.367,0,0,1-7.47,1.58c-3.914-1.987-7.329-3.524-10.041-4.023-2.95-.544-4.63-.287-5.286.811a1.918,1.918,0,0,0,.283,2.231c1.165,1.453,4.333,2.747,8.07,3.3a30.332,30.332,0,0,0,6.461.23m47.381-22.868c-1.906.421-3.971,2.147-4.854,2.884-1.193,1-2.439,2.025-3.759,3.115a222.155,222.155,0,0,0-17.346,15.349,50.8,50.8,0,0,0-5.629,6.709c-3.547-1.591-7.158-3.49-10.5-5.251l-.973-.512a37.1,37.1,0,0,0,4.454-1.177c7.261-2.4,11.96-8.874,12.894-17.752a31.58,31.58,0,0,0-1.035-11.9,66.759,66.759,0,0,0,6.19,2.966,85.112,85.112,0,0,0,20.564,5.571m-58.878,18.549a14.875,14.875,0,0,1,1.516.209,22.5,22.5,0,0,1,4.493,1.488c-.337-.041-.657-.087-.96-.137a16.441,16.441,0,0,1-5.049-1.56m-1.382.063h0Zm-62.884-70.005c-.686,2.132.613,5.044,1.744,7.186,3.652,6.918,11.524,14.636,18.469,21.446,3.775,3.7,7.34,7.2,9.714,10.071,3.091,3.743,2.98,5.044,2.788,5.43-.234.472-1.757,1.9-11.527.473-14.907-2.18-44.587-15.789-70.773-27.8-14.691-6.737-28.567-13.1-39.433-17.338-13.212-5.153-19.561-6.3-21.911-3.96-1.159,1.153-1.206,2.929-.141,5.279,5.689,12.553,26.972,26.9,38.406,34.6.858.579,1.725,1.162,2.545,1.721q-2.315-.875-5.564-2.17c-7.462-2.973-14.6-5.647-20.9-8.007C115,427.554,100.686,422.2,97.831,415.849a5.738,5.738,0,0,1-.041-4.615,1.653,1.653,0,0,0-.2-1.56c-.514-.737-1.654-1.6-8.727-2.484l-.691-.084c5.311-23.832,17.578-44.253,32.275-53.583,6.987-4.435,13.989-5.981,20.251-4.474a14.851,14.851,0,0,1,4.889,2.337c9.028,19.764,23.555,50.573,29.061,56.663.611.675,2.041,2.256,3.481,1.628,1.368-.6,1.205-2.449,1.144-3.147-.438-4.994-5.447-18.691-12.775-32.113A107.693,107.693,0,0,0,154.6,356.5a42.211,42.211,0,0,0-7.015-6.751q-1.593-3.493-3.243-7.153c-12.858-28.518-23.233-53.418-24.74-58.534,6.177-1.05,42.53-3.12,85.332-4.469,16.035-.506,39.142-1.1,58.172-1.053,24.085.057,28.486,1.137,29.261,1.6.537.32,2.751,2.344,8.7,14.951,3.983,8.435,8.747,19.74,13.415,31.834,8.347,21.622,17.924,49.842,19.773,64.2.735,5.706-.069,7.025-.333,7.293a1.173,1.173,0,0,1-.148.125c-14.349.864-37.9.883-60.9.9-35.534.028-72.279.057-84.051,2.9-1.621.392-3.087.846-3.213,2.089a1.62,1.62,0,0,0,1.094,1.652c3.205,1.506,22.3,2.059,44.68,1.943M429.711,452.9h0m20.071-36.338a1.134,1.134,0,0,1,.235.023c.606.129.74,1.63.334,3.735-1.268,6.581-6.324,13.467-14.058,19.277a11.876,11.876,0,0,1-.535-6.451c.816-3.521,3.365-7.843,6.819-11.56,3.109-3.346,5.932-5.024,7.205-5.024m-135.192,6.9a21.693,21.693,0,0,1-6.846-.881q-.4-.117-.788-.246a39.479,39.479,0,0,0,20.363-10.659,50.6,50.6,0,0,0,8.435-10.757c1.584-.111,3.044-.235,4.368-.373-1.174,1.427-2.584,3.042-4.258,4.842a115.623,115.623,0,0,1-18.344,16.274c-1.107.743-2.079,1.333-2.931,1.8m37.942-26.44c-3.7,3.179-7.172,6.209-10.364,9-7.921,6.919-14.178,12.384-17.558,14.412a22.156,22.156,0,0,1-3.346,1.648A127.24,127.24,0,0,0,337.7,407.089c1.755-1.888,4.054-4.468,5.99-7a20.382,20.382,0,0,0,3.464-.8c1.423-.51,3.249-1.284,5.38-2.269m-61.876,10.342a1.3,1.3,0,0,0-.734.239c-1.152.772-.424,2.238.421,3.936a25.735,25.735,0,0,0,7.768,8.958,44.683,44.683,0,0,1-5.68-.552c-13.383-2.148-26.228-6.2-36.55-9.464-3.124-.987-5.955-1.881-8.494-2.63,4.691-.082,9.393-.189,14.008-.318,13.254-.37,32.442-1.1,48.58-2.495,12.737-1.1,19.028-2.234,22.236-3.162a47.223,47.223,0,0,1-6.625,8,37.135,37.135,0,0,1-22.277,10.452c-2.565-2.552-5.226-5.593-7.3-7.965-1.208-1.381-2.251-2.574-3.044-3.41-.742-.784-1.5-1.588-2.308-1.588M150.132,355.3q1.311,1.336,2.667,2.942a107.9,107.9,0,0,1,11.678,17.693,165.439,165.439,0,0,1,9.448,20.677c2.028,5.5,2.7,8.571,2.848,10.048-.083-.085-.173-.181-.271-.289-3.718-4.112-13.381-22.865-26.372-51.071m168.885,46.314c-2.666.314-5.806.634-9.5.95-12.669,1.085-30.009,1.967-48.824,2.482-17.336.476-35.094.616-48.721.384-11.787-.2-17.859-.619-20.982-.985,12.971-2.443,47.986-2.471,81.895-2.5,16.719-.013,32.986-.026,46.136-.334m23.268-3.834c-1.439.2-3.145.375-5.084.529.948-1.825,1.708-3.531,2.307-5.03,2.388-5.971,3.523-11.926,3.037-15.93-.44-3.625-2.516-11.2-5.4-20.573,1.1-.034,2.354-.074,3.742-.119l1.64-.053q.128.093.27.181c3.284,2.05,12.328,2.517,16.064,2.622,5.863.166,13.518-.12,17.42-1.418a3.563,3.563,0,0,0,2.152-2.1c15.448.036,20.419.822,22.014,1.327-2.621,2.135-11.7,7.169-20.507,12.052-7.765,4.305-16.565,9.185-23.2,13.288-10.987,6.79-11.788,8.853-11.677,10.253.044.556-.757,2.225-2.775,4.967m18.214-7.506a132.974,132.974,0,0,1-14.19,6.659q-.238.085-.519.167c1.113-1.766,1.825-3.343,1.767-4.429.127-.466,1.33-2.36,11.053-8.326,6.512-4,15.029-8.718,22.544-12.885,12.486-6.923,20.219-11.265,21.815-13.206a1.808,1.808,0,0,0,.287-1.983c-.55-1.118-2.2-1.91-8.719-2.409q-2.352-.18-5.434-.291c14.175-.191,19.709.527,21.865,1.105-18.111,9.81-35.676,23.268-50.469,35.6m157.537-3.4a63.07,63.07,0,0,1,.18,9.4q-2.308-.324-4.084-.7c-4.634-.98-5.195-1.937-5.243-2.043-2.1-4.577-.847-12.764,1.655-16.255a5.891,5.891,0,0,1,.6-.719c.92,1.425,1.7,2.744,2.342,3.919.645,5.22,1.392,6.329,2.129,6.8a1.649,1.649,0,0,0,2.1-.011,1.561,1.561,0,0,0,.323-.389M334.559,356.848c2.942,9.517,5.065,17.2,5.5,20.8.431,3.552-.671,9.185-2.877,14.7q-.107.267-.221.543-.079-.978-.222-2.085c-1.877-14.58-11.521-43.025-19.92-64.783-4.689-12.148-9.479-23.513-13.487-32-6.741-14.277-8.957-15.6-9.685-16.032-.684-.408-2.267-1.352-16.466-1.76q4.346-1.405,5.892-4.47c2.307-4.594,5.084-15.748,7.533-25.588,1.42-5.7,3.1-12.453,4.282-15.951,1.45,7.864,12.675,28.231,22.624,46.284,4.265,7.738,8.947,16.235,11.17,20.908-2.382-2.448-5.035-5.582-7.444-8.426-6.365-7.518-8.66-10.063-10.519-9-1.428.819-1.236,2.927.788,8.678,4.521,12.84,15.279,43.389,22.245,65.6a1.558,1.558,0,0,0-.767.271,1.272,1.272,0,0,0-.444,1.426,1.464,1.464,0,0,0,1.551.882c.129,0,.282,0,.463,0m12.991,35.845h0m169.514-7.444h0M410.812,357.607a43.14,43.14,0,0,1-5.775,5.214,219.283,219.283,0,0,1-19.683,13.315c-4.168,2.56-8.511,5.118-12.758,7.529,11.817-9.336,24.869-18.684,38.216-26.058m105.023,21.45c.252.468.513,1,.782,1.613a13.229,13.229,0,0,1,.588,1.654q-.224-.506-.5-1.085-.364-.752-.8-1.567-.034-.3-.069-.616m-3.271-5.753a3.738,3.738,0,0,0-.549.04,87.854,87.854,0,0,0-14.242-15.983,11.177,11.177,0,0,0,6.322-1.388,5.143,5.143,0,0,0,2.458-3.862c.878-7.006-9.956-19.139-21.129-30.966-1.331-1.41-2.684-2.842-3.774-4.039a108.074,108.074,0,0,0,15.087,4.115,76.4,76.4,0,0,0,8.67,1.318c3.258.255,4.743-.059,5.294-1.119.931-1.792-1.719-3.261-2.992-3.968-6.049-3.355-16.872-7.349-24.832-10.129,2.425-.072,4.9-.254,7.019-.479a64,64,0,0,0,8.12-1.318c2.966-.732,4.306-1.492,4.625-2.625.567-2.015-2.264-2.819-3.195-3.084-5.033-1.43-11.3-.905-16.823-.442-6.27.525-12.193,1.021-14.368-1.424-2.049-2.305-9.43-16.2-14.431-32.679-4.231-13.936-7.593-32.577.414-42.244,13.879-16.755,20.486-25.037,19.023-30.171a5.274,5.274,0,0,0-3.755-3.476,59.57,59.57,0,0,0-7.179-1.671c-2.01-.386-3.909-.751-5.414-1.181a6.167,6.167,0,0,1-2.331-.994c.213-.353,1.335-1.586,7.183-3.96,6.317-2.564,11.864-4.285,16.32-5.668,4.246-1.318,7.6-2.358,9.8-3.57,1-.551,4.035-2.227,3.084-5.717-.288-1.058.211-1.9,1.05-3.179a7.779,7.779,0,0,0,1.431-3.17c9.325,8.121,12.714,30.856,15.609,55.463,1.931,16.41,2.18,52.756,2.42,87.9.144,21.01.279,40.855.759,56.107.176,5.6.384,10.04.616,13.569-.092-.007-.187-.011-.285-.011M374.491,355.9c-3.531.851-10.222,1.242-16.958.961-2.57-.108-4.728-.292-6.517-.515,7.189-.206,15.622-.4,23.475-.446m103.851-42.707a1.349,1.349,0,0,0-1.148.573c-.82,1.117.32,2.426,1.639,3.941,1.152,1.323,2.83,3.1,4.773,5.157,7.434,7.869,21.27,22.516,20.465,28.938a2.677,2.677,0,0,1-1.315,2.06c-1.745,1.105-4.62,1.3-8.467.622q-.281-.219-.565-.436a66.063,66.063,0,0,0-21.069-10.991,56.93,56.93,0,0,0-10.38-2.1q-.485-.276-.941-.54a8.353,8.353,0,0,0,1.971-.816c3.569-2.024,6.052-6.417,7.506-9.746a32.519,32.519,0,0,0,2.826-10.84c.122-5.023-2.807-6.638-5.16-7.936-.23-.127-.457-.252-.679-.379-.1-.937-.213-1.806-.327-2.568a65.1,65.1,0,0,0-2.487-10.49,16.119,16.119,0,0,0,1.4,1.969c3.006,3.38,9.234,2.859,16.446,2.255,5.573-.467,11.335-.95,15.93.356.3.086.552.167.755.24a45.858,45.858,0,0,1-10.639,1.97c-6.191.6-11.993.55-14.439-.131-.4-.113-.7-.193-.895-.242-1.292-.329-1.68.44-1.786.785a1.266,1.266,0,0,0,.949,1.625c.137.052.341.124.6.216.5.176,1.24.425,2.159.737,6.346,2.154,23.2,7.876,31.025,12.215.326.181.6.342.828.485a61.012,61.012,0,0,1-11.059-1.554c-6.672-1.4-13.058-3.315-16.268-4.876a4.043,4.043,0,0,0-1.655-.5M341.236,353.5c-2.212.179-3.81.324-4.971.444-7-22.376-17.843-53.18-22.394-66.1a36.879,36.879,0,0,1-1.459-4.915,97.938,97.938,0,0,1,6.922,7.682,118.151,118.151,0,0,0,9.834,10.75c.465.414,1.7,1.515,2.769.662.982-.784.505-2.19-.167-3.812-.542-1.308-1.417-3.13-2.674-5.57-2.338-4.54-5.764-10.755-9.39-17.335-9.216-16.722-21.837-39.624-22.452-46.205-.115-1.232-.307-3.3-1.857-3.413-1.411-.107-2.214,1.3-3.747,6.56-1.024,3.512-2.211,8.28-3.468,13.328-2.418,9.714-5.159,20.725-7.342,25.07-3.705,7.38-26.217,3.507-36.181,1.026,2.046-5.557,10.4-28.118,19.578-51.32,17.529-44.294,24.49-56.764,27.243-59.425,1.21-1.17,1.731-.812,1.981-.64.745.513,1.5,1.862,2.187,4.05-.743,6.24-1.711,15.462-2.477,24.528-.69,8.163-1.1,14.771-1.214,19.642a64.109,64.109,0,0,0,.1,6.626c.175,2,.524,3.408,1.662,3.764,1.65.516,2.57-1.634,3.012-2.667,2.516-5.876,4-18.3,3.788-31.644-.077-4.77-.475-14.128-2.33-20.459.4-3.35.728-5.731.9-6.579,1.013-4.952,14.154-10.338,34.087-17.988a19.921,19.921,0,0,1,7.992-1.273c-1.129,4.558-2.223,10.089-3.023,15.172-1.3,8.281-3.075,23.062-.294,29.009,1.077,2.3,2.623,2.832,3.731,2.871,5.541.189,11.431-1.9,15.734-3.424,2.15-.762,5.069-1.795,5.871-1.617.3.663-.066,3.219-.289,4.767-.563,3.911-1.2,8.344,1.834,9.452q.167.061.351.114c-3.747,12.214-11.335,37.529-17.886,63-4.932,19.182-6.338,43.716-6.649,60.918-.31,17.149.352,30.58.682,34.953m35.5-2.1q-2.692.1-5.558.231c-11.286.51-20.957,1.184-25.717,1.541l-1.73.131c-.315-4.214-.978-17.812-.673-34.712.308-17.069,1.7-41.393,6.571-60.341,6.6-25.68,14.265-51.2,17.965-63.25a83.6,83.6,0,0,0,8.7-.138c.963-.047,2.047-.1,2.938-.126-.182.481-.374,1.084-.584,1.844-.479,1.733-1.015,4.175-1.595,7.258-1.113,5.927-2.337,13.934-3.538,23.153-2.054,15.76-4.415,38.324-4.884,54.39-.414,14.172,2.44,30.781,4.958,45.434,1.406,8.181,2.62,15.246,3.023,20.555a38.613,38.613,0,0,1,.124,4.028m79.529-10.758a59.417,59.417,0,0,0-10.406.929c-10.552,1.875-21.409,6.079-32.115,11.636l-.1-.072c-1.084-.786-3.888-1.856-15.666-2.061-5.136-.09-11.422-.01-18.754.237.13-5.244-1.214-13.514-3.173-24.918-2.5-14.538-5.33-31.015-4.923-44.938.38-13.007,2.181-33.274,4.7-52.889,2.572-20.01,4.95-31.928,6.012-33.57a1.407,1.407,0,0,0,.837-1.642c-.3-1.152-1.621-1.142-2.791-1.133-.966.008-2.242.07-3.719.142-2.338.114-5.471.267-7.82.171.91-2.942,1.441-4.623,1.465-4.7.009-.029.017-.059.024-.088A22.958,22.958,0,0,1,371.6,183.2c-.06.653-.124,1.281-.185,1.88-.116,1.14-.216,2.124-.262,2.986-.027.5-.036.857-.027,1.118.041,1.176.721,1.459,1.123,1.524,1.178.188,1.529-.985,1.763-1.761.179-.595.4-1.418.68-2.46.644-2.4,1.586-5.907,2.78-9.377a8.813,8.813,0,0,1,5.944-.141c5.222,1.539,10.709,8.058,14.333,14.508a10.72,10.72,0,0,0-1.4,6.511,6.407,6.407,0,0,0,4.354,4.993,2.175,2.175,0,0,0,2.311-.269c1.051-.907.834-2.583.579-3.765a31.605,31.605,0,0,0-3-7.48c1.98-3.327,5.921-7.913,13.452-14.084,9.09-7.448,15.015-18.036,18.385-25.606a85.88,85.88,0,0,0,5.708-17.364c4.463,2.664,8.267,4.006,13.987,6.024,5.589,1.972,13.244,4.672,25.209,9.993a85.237,85.237,0,0,1,8.255,4.123,19.818,19.818,0,0,0-5.189.494c-9.8,2.182-17.716,8.452-24.194,19.167-5.884,9.733-9.625,21.561-12.51,31.847-2.66,9.484-2.592,33.34.174,60.778.479,4.76,1.058,9.737,1.727,14.7a28.655,28.655,0,0,0-10.153-.155,12.767,12.767,0,0,0-4.164,1.5c-.215-.017-.426-.026-.629-.023-.36-2.973-1.085-5.007-2.188-6.166-3.973-4.168-21.457-4.543-26.721-4.559-8.149-.019-22.84.689-26.2,3.522a2.192,2.192,0,0,0-.45,3.141,4.493,4.493,0,0,0,1.89,1.369,8.571,8.571,0,0,0-1.287.6,2.626,2.626,0,0,0-1.435,1.821c-.163,1.163-3.864,28.607,6.476,41.84a17.441,17.441,0,0,0,12.309,6.873,28.078,28.078,0,0,0,22.923-7.7,37.533,37.533,0,0,0,7.936-11.188,10.1,10.1,0,0,0,1.754,1.586c-.161.962-.322,1.89-.477,2.771a5.207,5.207,0,0,0-1.412,2.147,3.317,3.317,0,0,0,.211,2.772,3.943,3.943,0,0,0,.225.363c-.434,2.25-.722,3.616-.73,3.654a1.25,1.25,0,0,0,.77,1.425c.056.021,5.629,2.185,11.62,4.048,11.246,3.5,14.238,2.963,15.51,2.256a2.318,2.318,0,0,0,1.217-1.63c.448-2.372-2.843-3.536-4.082-3.974-2.2-.778-5.173-1.471-8.317-2.2-4.739-1.105-11.009-2.567-13.293-4.346.174-.922.364-1.948.564-3.06,1.182-.678,3.035-.914,5.476-.712a73.616,73.616,0,0,0,7.205,2.069c1.319.31,2.638.583,3.713.771.455.08.846.14,1.13.174,1.449.174,1.674-.626,1.748-.889a1.288,1.288,0,0,0-.94-1.586l-.437-.147a59.652,59.652,0,0,0-10.642-2.71q-.666-.09-1.295-.147a31.158,31.158,0,0,1-5.034-2.23c.327-2.012.655-4.148.96-6.334a20.993,20.993,0,0,1,2.7-.211q.707.3,1.475.572a42.169,42.169,0,0,0,11.571,2.245c2.2.092,3.307-.039,3.669-1.026a1.338,1.338,0,0,0-.467-1.533c-1.1-.854-9.057-2.785-15.71-2.759a17.78,17.78,0,0,1-2.7-1.475q.472-3.91.728-7.271a26.069,26.069,0,0,1,3.294-.192,39.84,39.84,0,0,0,7.575,2.532c2.158.52,4.532.962,6.819,1.274,2.124,11.34,4.721,21.007,7.65,25.648,1.2,1.9,2.435,2.935,3.78,3.167a5.842,5.842,0,0,0,6.179-2.5c1.921-2.775,2.276-7.256,2.1-11.27,1.838,1.056,3.191,2.168,3.115,5.264-.113,4.642-3.731,15.448-9.064,18.471a5.074,5.074,0,0,1-5.364-.048c-.424-.24-.76-.422-1-.541-1.211-.609-1.7,0-1.864.2a1.269,1.269,0,0,0,.055,1.646,23.028,23.028,0,0,0,2.909,1.96l-.55,0m12.923,4.076a60.692,60.692,0,0,1,18.244,7.969,106.51,106.51,0,0,1-10.948-4.392c-2.525-1.161-4.993-2.383-7.3-3.577M450,331.329c-.668.224-3.366.556-13-2.407-4.574-1.407-8.964-3.021-10.865-3.737.069-.343.154-.764.251-1.255,2.994,1.754,8.009,2.923,13.235,4.142,2.736.638,5.32,1.24,7.323,1.882A9.1,9.1,0,0,1,450,331.329m-27.364-22.29a36.281,36.281,0,0,1-8.39,12.758,25.647,25.647,0,0,1-20.939,7.026,15.026,15.026,0,0,1-10.6-5.926c-3.805-4.871-6.088-12.88-6.6-23.164a99.413,99.413,0,0,1,.61-16.631c.217-.188,1.195-.844,4.882-1.63.709.132,1.5.261,2.372.384a136.068,136.068,0,0,0,15.037,1.058c11.279.266,22.318-.339,25.677-1.406.438-.139,1.772-.563,1.8-1.775s-1.27-1.694-1.7-1.853c-6.456-2.41-31.062-1.461-43.214,1.041-2.882-.575-3.933-1.15-4.3-1.444.838-.582,4.113-1.76,12.683-2.423a151.143,151.143,0,0,1,22.512.011c7.458.608,12.761,1.863,14.187,3.36.477.5,1.189,1.787,1.542,5.071-1.725,1.01-2.512,3.15-2.341,6.379.073,1.375.078,2.757.02,4.136a5.06,5.06,0,0,0-.488.374,4.107,4.107,0,0,0-1.221,4.476,8.2,8.2,0,0,0,.88,2.051,45.77,45.77,0,0,1-1.535,5.763,4.482,4.482,0,0,0-.808,1.844,4.287,4.287,0,0,0-.066.52m42.791,3.134c.393,4.8.016,9.084-1.564,11.366a3.369,3.369,0,0,1-3.7,1.456c-.271-.047-1.018-.339-2.091-2.038-2.433-3.854-4.939-12.435-7.158-24.01l.368.034q.358.031.7.056a133.6,133.6,0,0,1,11.6,11.4,7.467,7.467,0,0,0,1.836,1.734m-38.71-4.937c-.192,1.335-.392,2.647-.593,3.917a5.427,5.427,0,0,1-.4-.444,2.538,2.538,0,0,1-.577-1.181q.274-.7.528-1.424l.073-.208a3.585,3.585,0,0,1,.966-.66m21.85-22.454c4.908,1.41,9.354,3.92,11.275,7.191,2.154,3.668,4.13,10.014,5.1,16.187-1.513-1.708-5-5.25-9.216-9.114A1.677,1.677,0,0,0,457.2,298c.125-.376.262-1.317-1.176-1.936a37.449,37.449,0,0,0-5.509-1.61l-.494-.416c-.507-2.937-.995-6.028-1.458-9.253m-21.461,19.64c-.109.032-.216.065-.321.1q.16-.6.3-1.207l.145.125c-.023.179-.046.358-.07.54l-.058.443m28.067-6h0M431.886,285.5c2.238.462,6.281,2.289,13.408,7.909-1.311-.223-2.662-.425-4.012-.592a60.33,60.33,0,0,0-6.847-.5,12.331,12.331,0,0,1-2.509-1.637,5.12,5.12,0,0,1-1.023-1.169q.019-.882.016-1.705,0-.588-.015-1.147a3.977,3.977,0,0,1,.982-1.16m14.068-1.356c.356,2.523.735,5.03,1.135,7.5a74.117,74.117,0,0,0-8.565-5.986,30.617,30.617,0,0,0-3.27-1.666c.223-.053.444-.1.661-.142a26.909,26.909,0,0,1,10.038.3m-17.574,5.93c0,.058,0,.116-.005.174,0-.069-.006-.139-.009-.208l.014.034m24.238-102.967c1.32,1.54,4.782,2.2,9.237,3.061a58.017,58.017,0,0,1,6.855,1.586c1.621.544,2,1.282,2.145,1.79,1.167,4.1-7.531,14.6-18.543,27.89-8.716,10.523-5.29,30.044-.881,44.567a168.693,168.693,0,0,0,8.516,22.128c-2.841-2.782-7.187-4.847-11.757-6.018-.673-4.918-1.289-10.115-1.833-15.517-2.737-27.152-2.836-50.645-.254-59.852a183.709,183.709,0,0,1,6.515-19.635m-31.2,92.517a155.571,155.571,0,0,1-20.887.819c-3.421-.057-6.624-.189-9.506-.39,2.272-.247,4.7-.46,7.2-.63,9.776-.664,18.481-.567,23.2.2m2.858.765h0M297.254,172.471a115.921,115.921,0,0,1,.769,12.147c.2,12.613-1.188,24.726-3.472,30.346-.246-2.83-.279-9.876,1.238-27.356.454-5.234.972-10.5,1.465-15.137m101.976,21.85a18.714,18.714,0,0,1,2.076,6.209,3.812,3.812,0,0,1-2.486-2.945,6.686,6.686,0,0,1,.41-3.264m-17.336.6h0m-14.478-7.8c-.1.3-.666,2.112-1.592,5.112-.082-.023-.159-.047-.23-.073-1.128-.412-.557-4.377-.215-6.745.5-3.487.9-6.24-.877-7.274-1.53-.889-3.971-.024-8.016,1.41-4.343,1.539-9.748,3.453-14.812,3.281-.221-.008-.9-.031-1.551-1.431-1.8-3.845-1.611-14.148.5-27.56.938-5.963,2.053-11.269,3.077-15.325a32,32,0,0,1,8.181,2.436c.478,1.3.965,2.583,1.459,3.741,3.117,7.3,6.061,10.728,13.68,18.67,4.03,4.2,4.909,9.808,4.863,14.909a23.621,23.621,0,0,0-4.465,8.849m68.457-54.192a77.1,77.1,0,0,1-4.167,14.107c-2.746,6.972-8.9,19.936-19.248,28.417-6.035,4.945-10.45,9.444-13.12,13.37l-.131.194c-.732-1.223-1.522-2.437-2.349-3.6-2.387-3.352-7.215-9.219-12.734-10.846a11.883,11.883,0,0,0-5.576-.376c.226-.568.458-1.125.7-1.666,2.069-4.686,6.116-7.3,12.822-11.623a196.2,196.2,0,0,0,20.6-14.862c9.435-7.814,13.441-14.281,15.03-18.952a10.251,10.251,0,0,0,2.156.53,43.969,43.969,0,0,0,6.025,5.305m54.48,25.3a3.208,3.208,0,0,1,.553,1.019c.255.867-.208,1.638-.985,2.825-.878,1.34-1.97,3.009-1.371,5.207.22.806.256,1.692-1.879,2.87a58.2,58.2,0,0,1-9.329,3.372c-4.5,1.4-10.1,3.135-16.519,5.739a40.607,40.607,0,0,0-6.035,2.9c5.847-12.378,13.852-21.924,26.153-24.662a14.194,14.194,0,0,1,9.412.735m-114.9,17.079q-.119.065-.237.133-.463.269-.894.576c-.248-4.934-1.524-10.239-5.5-14.384-7.385-7.7-10.233-11.009-13.185-17.921-.158-.37-.316-.757-.475-1.154,5.937,3.194,12.273,8.155,18.9,14.835.31.313.552.556.72.719.879.85,1.545.62,1.948.278a1.284,1.284,0,0,0,.142-1.822c-.083-.126-.2-.3-.388-.554-1.442-2,4.079-7.007,9.924-12.314,7.224-6.557,16.213-14.718,22.648-25.172a39.428,39.428,0,0,0,4.363-10.729,57.456,57.456,0,0,0,8.889,15.268,14.78,14.78,0,0,0,3.142,2.884,21.959,21.959,0,0,1-1.316,3.144c-2.439,4.811-6.834,9.867-13.064,15.026a194.013,194.013,0,0,1-20.356,14.687c-6.855,4.422-11.383,7.344-13.754,12.715-.534,1.21-1.035,2.49-1.5,3.785M411.886,103.3a41.571,41.571,0,0,1-4.962,13.914c-6.249,10.152-15.093,18.181-22.2,24.631a91.69,91.69,0,0,0-8.646,8.469,11.518,11.518,0,0,0-2.1,3.481c-7.586-7.349-14.277-11.955-20.1-14.67l-.17-.471a21.4,21.4,0,0,0,2.935,1.471c6.825,2.789,15.153,1.931,26.207-2.7,11.674-4.89,20.6-18.84,26.028-29.681.957-1.911,1.851-3.818,2.676-5.686q.154.615.333,1.242m-1.131-5.761c-1.179,2.893-2.556,5.973-4.114,9.085-5.242,10.463-13.792,23.9-24.758,28.495-13.286,5.566-22.361,5.641-29.765-.748-1.59-4.058-2.951-6.493-4.887-6.8a2.442,2.442,0,0,0-.906.026,66.633,66.633,0,0,1-4.386-7.8c-9.81-20.19-19.211-55.759-17.049-64.506,1.243-5.034,9.355-7.209,18.749-9.728,6.434-1.725,13.726-3.681,19.811-6.937a90.466,90.466,0,0,0,10.35-6.5,23.418,23.418,0,0,0,1.946,5.585c3.7,7.689,8.947,10.187,13.576,12.392a25.853,25.853,0,0,1,6.477,3.881c2.874,2.6,5.155,8.772,6.82,13.276,1.64,4.434,2.254,6.1,3.729,6.037.53-.02,1.236-.3,1.59-1.543a25.92,25.92,0,0,0,.235-6.16c-.116-4.921-.291-12.358,2.367-14.143l.017-.011a238.509,238.509,0,0,1,2.835,31.08c-.316.843-.654,1.865-1.011,3.1A37.363,37.363,0,0,0,410.7,96.714q.02.406.058.827m-60.716,38.382c.235.616.469,1.25.7,1.889a33.168,33.168,0,0,0-6.4-1.709,39.662,39.662,0,0,1,1.565-4.746,32.567,32.567,0,0,0,4.136,4.566m86.164-8.139a6.451,6.451,0,0,1,.064,2.322c-1.038-.808-2-1.652-2.868-2.471l.253-.022c1.3-.112,2.141-.164,2.551.171m-15-66.4a21.178,21.178,0,0,1,.312,2.157c.383,4.181-.473,6.994-1.015,7.786-.971-1.176-.681-2.881.107-6.838.188-.946.393-1.975.6-3.1M410.161,48.86a4.766,4.766,0,0,0-1.014.518c-3.8,2.549-3.618,10.162-3.474,16.279.023.968.045,1.914.046,2.751-.253-.66-.513-1.363-.753-2.012-1.755-4.746-4.158-11.246-7.487-14.262a27.722,27.722,0,0,0-7.081-4.285c-4.464-2.126-9.08-4.324-12.4-11.219a18.872,18.872,0,0,1-1.931-6.2c1.412-1.092,2.563-2.051,3.419-2.792q.3-.256.574-.5c11.01-.161,17.762,2.285,21.847,4.985,5.7,3.768,6.95,8.463,7.224,10.307.1.693.252,1.61.44,2.77.172,1.056.371,2.286.587,3.662M397.025,16.2c3.077,0,9.789.551,15.061,4.869,4.307,3.528,6.818,8.859,7.461,15.845a95.662,95.662,0,0,1,.259,15.648,12.494,12.494,0,0,0-4.358-3.169,9.658,9.658,0,0,0-2.8-.8c-.224-1.428-.431-2.7-.609-3.8-.187-1.151-.335-2.06-.435-2.737-.323-2.176-1.78-7.7-8.318-12.026-4.042-2.673-10.484-5.126-20.593-5.369,3.777-3.826,3.265-4.979,3.047-5.469-.306-.688-1.083-1.359-3.05-.651-4.165,1.5-6.856,3.588-8.2,6.378a128.384,128.384,0,0,0-21.847,3.921c-14.587,3.8-24.817,9.727-30.407,17.612a25.719,25.719,0,0,0-1.923,3.164,7.4,7.4,0,0,1,1.388-3.1,13.575,13.575,0,0,0,1.612-2.979,3.508,3.508,0,0,0,0-3.147c-.76-1.259-2.327-1.455-3.987-1.664a8.98,8.98,0,0,1-4.239-1.255c-.367-.272-.583-.539-.577-.712.035-.946,2.811-2.7,4.469-3.753.7-.441,1.417-.9,2.058-1.341a2.5,2.5,0,0,0,1.309-2.252c-.2-1.4-1.736-1.922-3.868-2.647-2.008-.683-4.508-1.534-5.424-2.993a1.617,1.617,0,0,1-.217-.456c.56-.52,3.487-.748,5.079-.871a31.206,31.206,0,0,0,5.132-.672c.439-.114,1.772-.463,2.066-1.672.33-1.362-.862-2.432-2.512-3.912-1.777-1.595-4.211-3.778-4.6-6.335a3.371,3.371,0,0,1-.043-1.048,14.314,14.314,0,0,1,3.362.845,32.656,32.656,0,0,0,11.563,2.022c3.914-.15,8.772-1.646,14.4-3.377,9.28-2.857,20.83-6.412,33.787-5.7,6.993.383,11.566,2.147,13.224,5.1,1.731,3.083-.165,6.688-.184,6.725a1.252,1.252,0,0,0,1.236,1.839c.024,0,.647-.065,1.678-.065m-17.962,8.477c-.5.013-1,.031-1.515.055a11.708,11.708,0,0,1,4.759-3.346,36.269,36.269,0,0,1-3.244,3.291" transform="translate(0 -0.004)" fill="#fff"/>
  </g>
</svg>
