<svg id="Group_22778" data-name="Group 22778" xmlns="http://www.w3.org/2000/svg" xmlns:xlink="http://www.w3.org/1999/xlink" width="501.338" height="523.591" viewBox="0 0 501.338 523.591">
  <defs>
    <clipPath id="clip-path">
      <rect id="Rectangle_4432" data-name="Rectangle 4432" width="501.338" height="523.591" fill="#fff"/>
    </clipPath>
  </defs>
  <g id="Group_22778-2" data-name="Group 22778" clip-path="url(#clip-path)">
    <path id="Path_10636" data-name="Path 10636" d="M0,514.947c41.975,0,78.265.06,108.6.181,36.058.144,63.979.376,82.987.69,10.075.166,17.841.359,23.091.572-3.309-6.993.6-22.729,4.719-39.294,2.965-11.931,5.765-23.2,5.086-28.972-.545-4.635-2.749-12.434-10.148-23.269-.122-.179-.217-.318-.28-.413a1.234,1.234,0,0,1,.194-1.792c.277-.211,1.012-.6,1.838.357.114.131.284.332.518.608.845,1,2.418,2.859,5.105,5.905,4.368,4.95,11.965,10.537,21.037,15.687,6.265-4,19.6-6.827,35.23-7.139,3.17-.063,4.043-.536,4.247-.693-.073-.205-.428-.884-2.113-2.187a54.4,54.4,0,0,0-6.261-3.986c-5.178-2.93-11.824-6.181-18.252-9.325-16.793-8.214-20.631-10.368-19.768-12.671.4-1.059,1.642-2.207,8.018-3.436,3.807-.734,9.126-1.421,15.382-1.987a307,307,0,0,1,32.158-1.3c1.83.063,2.985-.3,3.431-1.069,1-1.729-.616-5.67-2.971-9.993a5.806,5.806,0,0,1-3.394.908,2.533,2.533,0,0,1-2.349-1.442c-.533-1.041-.9-3.015.49-8.259l-.031-.051c-.492-.788-.98-1.569-1.455-2.338-4.47-2.519-11.044-3.436-18.683.2-5.953,2.835-17.563,10.2-31.006,18.735-32.856,20.852-77.439,49.145-97.1,49.148a17.35,17.35,0,0,1-2-.109c-9.711-1.121-15.648-11.777-16.288-29.237a96.267,96.267,0,0,1,5.159-34.087c4.071-11.393,9.733-18.319,15.943-19.5,9.658-1.841,23.1.089,36.1,1.955,14.944,2.145,29.059,4.171,35.033.188,3.2-2.13,2.95-8.6-.657-17.309q-.372-.9-.781-1.8a70.516,70.516,0,0,1-3.7,8.011c-2.087,3.479-6.888,5.413-15.106,6.085-6.888.563-15.293.162-23.422-.225-7.09-.338-13.787-.657-19.332-.365q-.365.019-.708.019c-5.336,0-6.582-3.4-6.844-5.482-.675-5.371,3.585-14.632,10.853-23.593,7.71-9.506,16.627-16.045,23.853-17.49a15.1,15.1,0,0,1,7.771.641c-.985-8.232-2.768-17.664-4.075-24.583-1.121-5.932-1.706-9.085-1.706-10.315,0-1.89-3.425-5.1-6.446-7.927-2.978-2.789-6.058-5.673-7.284-8.372-2.523-5.551.428-17.475,2.412-24.088.41-1.365,1.182-1.675,1.758-1.695h.061c1.771,0,2.931,2.657,5.737,10.109,1.229,3.265,2.622,6.967,3.452,7.962a1.68,1.68,0,0,0,1.519.584c2.257-.12,5.8-2.775,7.893-5.918,1.53-2.295.623-7.781-.106-12.189-.565-3.413-1.01-6.108-.546-7.735a1.708,1.708,0,0,1,1.709-1.318c.722.019,1.764.391,4.022,3.016a63.615,63.615,0,0,1,4.581,6.2c2.685,4.062,6.1,10.013,6.884,13.416,1.335,5.788-2.355,11.429-5.319,15.963-.631.965-1.227,1.876-1.744,2.738-.273.456-.86,2.785-.409,14.547.09,2.361.212,4.881.356,7.5,2.573-4.576,5.272-9.283,8.021-13.97,3.583-6.109,8.193-13.775,13.08-21.4q-.04-.236-.074-.479c-.667-4.659,2.656-12.53,4.115-15.7,2.263-4.914,5.538-10.579,7.752-12.161a1.776,1.776,0,0,1,1.895-.234c1.269.625,1.486,2.436,1.647,6.646,3.755-4.7,7.181-8.286,9.881-9.923,7.745-4.694,18.926-8.52,28.791-11.9,1.581-.541,3.171-1.085,4.735-1.631,2.874-6.742,5.9-12.6,8.75-15.453a6.5,6.5,0,0,1,4.834-2.27,5.547,5.547,0,0,1,2.662.86c.044-.257.071-.4.075-.423.282-1.5.827-3.538,2.3-3.879a1.951,1.951,0,0,1,2.05.891c1.127,1.516,1.712,5.14.89,8.806.648.685,1.282,1.229,1.657,1.166.146-.024.929-.294,2.062-3.243,4.181-10.869,3.327-15.259.056-21.5a71.966,71.966,0,0,1-5.657-7.027q-.839-1.183-1.655-2.422l-.375-.373c-1.262-1.262-2.232-2.276-2.882-3.012-.761-.861-1.311-1.483-1.012-2.294a1.248,1.248,0,0,1,.48-.607,129.441,129.441,0,0,1-9.113-21,190.72,190.72,0,0,1-7.741-32.526c-.254-.575-.528-1.179-.81-1.8-1.835-4.047-4.119-9.084-5.006-14.573-1.07-6.622.144-12.25,3.712-17.207,4.637-6.441,12.421-11.007,23.136-13.573q2.445-.586,5.053-1.023a1.363,1.363,0,0,1,.893-1.1,1.909,1.909,0,0,1,1.9.682,127.085,127.085,0,0,1,30.946.181c16.362,1.877,34.041,9.119,46.949,14.407,4.283,1.755,7.982,3.27,10.815,4.246q.578.2,1.071.355.169-1.807.291-3.65c-3.778-3.72-10.733-8.836-20.9-14.045a174.9,174.9,0,0,0-60.74-17.668c-16.372-1.765-28.837.423-37.739,3.895-.132,1.953-.19,3.857-.245,5.684C273.234,62.46,273,70.048,262.708,70.3c-5.383.133-7.629-1.862-8.564-3.558-1.306-2.367-.82-5.481,1.368-8.769,3-4.506,8.708-8.676,15.918-11.687.88-9.742,4.026-21.1,17.737-30.606A93.891,93.891,0,0,1,312.855,3.544,65.166,65.166,0,0,1,336.822.077,57.022,57.022,0,0,1,360,6.35a73.023,73.023,0,0,1,21.235,16.938c9.792,11.086,14.682,26.508,14.535,45.837q-.022,2.869-.179,5.672a12.609,12.609,0,0,1,3.21,4.838,2.26,2.26,0,0,1-.567,2.441c-.667.587-1.7.727-3.29.448q-.259,2.331-.578,4.566l.014.1c.781,5.624.119,13.436-1.823,22.156.636-.915,1.309-1.943,2-3.074,3.009-4.927,5.03-9.615,5.274-12.235.082-.878-.041-1.495-.328-1.651-1.648-.9-2.166-1.469-2.055-2.261a1.24,1.24,0,0,1,.966-1.045c.369-.083.874-.2,3.126,1.475a50.6,50.6,0,0,1,5.54,4.917c4.164,4.179,10.968,11.964,19.734,25.321,5.788,8.819,6.859,17.46,3.274,26.417-3.058,7.641-9.046,14.324-14.33,20.22-3.546,3.958-6.835,7.628-8.716,11.005,6.567,4.927,12.152,9.557,14.384,13.617,2,3.635,1.577,5.764.87,6.91a3.976,3.976,0,0,1-3.743,1.743c-4.026-.154-10.1-4.216-14.606-12.941a9.619,9.619,0,0,1-.009-8.592c-1.39-1.031-2.8-2.064-4.205-3.091-8.43-6.169-17.147-12.549-20.452-17.889a33.738,33.738,0,0,1-4.265-12c-.008-.049-.021-.128-.037-.233a64.268,64.268,0,0,1-7.827,14.047c-6.077,8.189-14.206,14.7-24.85,19.895-9.685,4.73-19.324,5.326-28.651,1.773a44.809,44.809,0,0,1-9.616-5.176l.084.158a48.058,48.058,0,0,0,16.377,11.894c16.5,7.007,31.128,4.494,44.129,1.755,1.8-2.667,3.406-5.257,4.91-7.678,4.374-7.045,7.264-11.7,10.906-12,1.654-.135,3.21.657,4.754,2.422a19.651,19.651,0,0,0,4.916,3.873c1.936,1.187,3.766,2.308,4.284,4.557.359,1.558.037,3.542-1.135,6.343a27.032,27.032,0,0,1,12.092,6.372,9.158,9.158,0,0,1,3.158,7.238c-.053,5.678-4.125,13.108-12.673,22.977a31.438,31.438,0,0,1,8.224.684c17.852,3.868,30.451,22.187,33.67,38.284q.811,4.056-.761,11.137c2.051,3.766,3.726,9.086,3.887,17.452.227,11.821-8.177,39.124-17.075,68.029q-.887,2.882-1.784,5.8a52.406,52.406,0,0,1,2.534,10.039c1.17,7.8-1.113,13.569-6.787,17.142a23.392,23.392,0,0,1-4.512,2.159c-6.26,22-10.857,41.784-9.46,51.387,2.227,15.316,14.14,35.954,22.838,51.024,1.865,3.231,3.626,6.282,5.1,8.949a15.848,15.848,0,0,1,1.257,2.868c13.655-.227,27.611-.361,40.082-.416,17.587-.077-5.291-.011,6.728.186,20.1.329,20.637.827,21.152,1.309a1.274,1.274,0,0,1,.411.938,1.223,1.223,0,0,1-1.927,1c-4.39-1.039-19.08-1.368-65.965-.6a7.628,7.628,0,0,1-2.29,6.126c-4.582,4.605-15.166,5.674-24,5.674-2.732,0-5.3-.1-7.462-.234-12.542-.761-25.548-3.27-30.252-5.838-1.657-.9-2.374-1.926-2.129-3.037.3-1.362,1.785-2.7,10.556-3.293,12.5-.84,32.045-1.414,52.524-1.774a15.169,15.169,0,0,0-.827-1.73c-1.462-2.646-3.217-5.688-5.076-8.908-8.8-15.241-20.846-36.115-23.141-51.894a35.215,35.215,0,0,1-.223-6.578c-2.316,1.425-6-.9-11.523-4.382-6.771-4.271-16.046-10.119-23.91-8.773-4.261.731-10.332,6.153-18.044,16.117-7,9.047-14.37,20.434-21.494,31.446-9.651,14.917-17.985,27.8-23.674,32.269-3.356,2.637-6.077,3.525-8.319,2.714-4.008-1.449-5.382-7.873-7.121-16.006-1.239-5.794-2.644-12.361-5.222-18.323-1.809-4.183-2.771-5.006-3.05-5.165-.2.186-.794.971-1.556,4.111-.641,2.641-1.238,6.184-1.931,10.286a211.022,211.022,0,0,1-5.007,23.741c-.7,2.416-1.934,5.63-4.46,5.65h-.023c-2.611,0-5.132-3.6-8.424-12.017-2.62-6.7-5.287-15.338-7.867-23.69-3.371-10.913-6.856-22.2-8.944-24.286-2-2-1.831-3.877-1.338-5.1a6.192,6.192,0,0,1,1.423-2.04,96.989,96.989,0,0,1-18.239-13.094,44.265,44.265,0,0,1,4.506,14.079c.731,6.215-2.121,17.694-5.142,29.848-2.1,8.451-4.272,17.19-5.286,24.4-1.066,7.579-.67,12.437,1.178,14.447,1.425.075,2.586.154,3.47.234,1.8.164,3.108.282,3.251,1.478.043.355,0,1.215-1.346,1.534-2.637.628-4.776.337-6.373-.862-11.433-.54-41.773-1.095-113.5-1.358-29.195-.107-63.671-.161-103.155-.161m369.957-2.434c.6.457,2.39,1.462,7.41,2.714a123.744,123.744,0,0,0,16.876,2.792c15.068,1.514,27.461.48,33.151-2.766,2.651-1.512,3.846-3.422,3.615-5.867-20.992.364-40.367.951-52.979,1.8-5.446.366-7.4.993-8.072,1.329M222.58,517.365h0M242.854,448.1a4.607,4.607,0,0,0-1.364,1.706c-.2.509-.345,1.317.8,2.46,2.4,2.4,5.19,11.172,9.551,25.294,2.567,8.311,5.221,16.9,7.808,23.522,3.888,9.946,5.8,10.462,6.147,10.462h0c.041,0,1.013-.052,2.132-3.89a209.016,209.016,0,0,0,4.943-23.463c1.934-11.454,2.829-16.115,5.6-16.451,1.836-.222,3.45,1.707,5.59,6.655,2.674,6.184,4.105,12.877,5.369,18.782,1.518,7.1,2.83,13.23,5.562,14.218,1.363.493,3.374-.293,5.976-2.338,5.368-4.217,14-17.554,23.132-31.674,7.152-11.055,14.547-22.486,21.613-31.615,8.327-10.758,14.544-16.17,19.565-17.031,8.79-1.506,18.522,4.633,25.627,9.115a68.777,68.777,0,0,0,6.226,3.667c2.091,1,2.638.75,2.726.69.032-.022.78-.583.015-4.622a164.828,164.828,0,0,0-4.2-16.247c-2.606-8.783-4.489-15.128-2.385-18.756a5.3,5.3,0,0,1,3.55-2.5c1.347-.317,3-.572,4.747-.842a66.051,66.051,0,0,0,9.625-1.991c2.539-8.847,5.355-18.112,8.2-27.388-.607-1.623-1.239-3.1-1.842-4.518-3.272-7.67-5.636-13.212,3.245-26.534,4.215-6.323,7.315-20.122,8.674-38.331q-1.961,4.686-4.372,9.927c-8.6,18.7-21.2,41.825-35.478,65.109-14.206,23.172-29.1,44.92-41.926,61.237-14.521,18.467-25.43,28.932-32.423,31.1a47.524,47.524,0,0,1-14.043,1.931c-14.468,0-29.787-4.976-38.983-8.579a164.513,164.513,0,0,1-19.416-9.108m256.039,63.3v0Zm0-.011v0ZM245.2,446.57a161.27,161.27,0,0,0,17.961,8.362c11.99,4.7,34.612,11.8,51.409,6.59,6.419-1.992,17.216-12.462,31.225-30.278,12.773-16.245,27.605-37.909,41.763-61,19.8-32.3,34.777-61.35,42.395-81.52.3-6.732.348-13.479.139-19.377-2.734-3.172-4.9-6.165-3.007-12.778.36-1.259.844-2.446,1.938-2.6a1.625,1.625,0,0,1,1.634.858c1.1,1.742,1.589,7.872,1.809,12.709.013.284.025.572.037.861.808.93,1.685,1.943,2.557,3.134a21.842,21.842,0,0,0,.271-7.66c-3.063-15.317-14.966-32.729-31.79-36.374a29.1,29.1,0,0,0-10.081-.4q-3.053,3.368-6.755,7.1c-11.073,11.165-25.29,23.508-38.554,34.856-12.215,18.779-25.392,41.477-37.041,63.95q-1.93,3.723-3.725,7.29a85.419,85.419,0,0,1,15.467,8.678c1.541-4.59,3.879-8.246,6.8-10.491,6.171-4.745,16.657-13.479,26.173-22.293,14.851-13.755,17.093-18.22,17.368-19.5a46.549,46.549,0,0,0,.683-7.36c.188-4.489.351-8.365,2.327-10.08a3.506,3.506,0,0,1,2.755-.82,11.088,11.088,0,0,1,2.623.7,6.821,6.821,0,0,1,1.829-4.3c1-1,2.139-2.214,3.342-3.5,1.55-1.653,3.154-3.362,4.46-4.6,1.818-1.723,3.007-2.538,4.085-1.918,1.173.675.7,2.238.528,2.827a89.224,89.224,0,0,0-3.607,16.589c2.047,1.022,4.06,1.985,5.847,2.694,3.513,1.394,4.624,1.178,4.938,1.021,1.7-.852,4.867-5.9,7.178-9.588,3.444-5.494,4.6-7.227,6.061-7.094a1.545,1.545,0,0,1,1.294,1.011c1.278,3.2,5.013,17.1-.053,26.724-2.873,5.46-9.085,10.146-15.827,11.939-3.526.937-6.639.932-8.94.007a13.04,13.04,0,0,1-3.876,3.373c-4.424,2.56-16.3,14.616-27.778,26.275-8.988,9.126-17.629,17.9-23.578,23.114a14.547,14.547,0,0,1,1.506,4.093c.695,3.672-.662,6.861-3.923,9.222-3.639,2.636-7.1,2.707-9.706.274-.338.768-.675,1.554-1.016,2.346-3.483,8.1-7.714,17.945-16.512,17.946a14.083,14.083,0,0,1-3.979-.612,24.49,24.49,0,0,1-9.022-5.192c2.332,4.55,3.521,8.413,2.108,10.859-.933,1.616-2.826,2.386-5.633,2.29a299.3,299.3,0,0,0-31.144,1.231c-6.071.534-11.294,1.183-15.1,1.876-4.323.786-5.988,1.472-6.615,1.836A31.415,31.415,0,0,0,244,413.315c3.435,1.846,7.924,4.042,12.676,6.367,6.684,3.269,13.595,6.649,18.9,9.691,8.066,4.62,9.454,6.761,9.058,8.556-.483,2.184-3.786,2.529-6.609,2.586-15.168.3-27.038,2.992-32.826,6.056M150.235,367.09a46.707,46.707,0,0,0-8.643.7c-5.246,1-10.385,7.531-14.1,17.922a93.7,93.7,0,0,0-5.018,33.175c.28,7.629,2.215,25.523,14.125,26.9,7.617.878,22-4.368,42.73-15.6,18.129-9.817,38.452-22.715,54.781-33.078,14.067-8.927,25.178-15.979,31.265-18.878,6.747-3.213,12.794-3.2,17.536-1.626a43.6,43.6,0,0,1-3.088-6.079c-.185-.486-.336-.873-.454-1.172-.468-1.064-.484-1.158-.463-1.452a1.223,1.223,0,0,1,1.04-1.125c.96-.143,1.274.63,1.526,1.251l.124.309a78.911,78.911,0,0,0,5.461,10.214q.322.2.63.413c.733-2.254,1.7-4.933,2.97-8.129,3.177-8.01,7.742-18.014,13.341-29.251-1.076-.385-2.1-.706-3.072-.955-8.7-2.245-19,2.563-28.963,7.21-3.981,1.857-8.04,3.75-12.051,5.224-3.648,2.389-7.141,4.466-10.256,6.088-6.075,3.163-10.3,4.409-12.553,3.7-2.194-.686-4.693-1.719-4.547-3.64.112-1.466,1.694-2.542,5.289-3.6a104.456,104.456,0,0,1,12.786-2.552,43.358,43.358,0,0,0,8.18-2.205c2.613-1.716,5.383-3.648,8.265-5.786,15.473-11.48,27.651-23.959,32.576-33.38,4.21-8.055,21.5-22.811,41.514-39.9q2.546-2.174,5.155-4.4,1.662-2.554,3.293-5a6.067,6.067,0,0,1-4.447-.441c-8.164-4.082-18.01-15.3-23.3-21.325-.85-.969-1.717-1.957-2.371-2.67a8.669,8.669,0,0,1-2.273,1.433c-1.672.8-4.049,1.666-6.565,2.582-5.728,2.086-13.572,4.942-15.272,8.1-2.631,4.886-26.157,68.6-32.692,86.363q-.178.5-.352.968l-1.008,2.741-.243.659c-.014.039-.03.082-.048.128l-.024.066h0a1.22,1.22,0,1,1-2.289-.841h0l.027-.072c.018-.053.037-.1.055-.154l.263-.716c.23-.627.568-1.547,1-2.721l.34-.925c8.626-23.936,26.13-87.87,28.121-99.095-2.08,1.078-5.917,3.385-9.152,5.33-3.182,1.913-6.472,3.891-9.056,5.323-4.12,2.285-5.332,2.633-6.171,1.779a1.53,1.53,0,0,1-.039-2.034c.691-1.1,2.289-5.667,4.14-10.949,2.047-5.842,4.571-13.045,7.28-19.724l-2.687.921c-9.748,3.336-20.8,7.117-28.315,11.674-2.677,1.623-6.4,5.552-11.01,11.571.248,5.565.909,12.261,4.175,12.874,3.475.651,5.385.705,6.595.187,1.133-.486,1.868-1.6,3.086-3.443q.214-.323.445-.671c1.214-1.821,1.86-6.277,2.429-10.208.821-5.667,1.53-10.56,3.913-11.923a2.1,2.1,0,0,1,2.389.248c2.68,2.032,5.065,11.118,5.967,14.93,1.356,5.734,2.65,13.581,1.838,16.826-1.648,6.6-16.171,14.73-22.946,17.633-.719.309-3.06,2.591-9.24,17.089-4.118,9.662-8.834,22.078-12.994,33.031-2.6,6.858-5.033,13.251-7.1,18.413.651,1.319,1.25,2.637,1.792,3.945,4.149,10.018,4.06,17.41-.246,20.279-6.751,4.5-21.317,2.412-36.737.2-9.207-1.321-18.639-2.675-26.654-2.675m260.19,28.931a78.28,78.28,0,0,1-8.464,1.641c-1.7.263-3.307.511-4.56.806a2.884,2.884,0,0,0-1.995,1.345c-1.575,2.716.366,9.258,2.614,16.834,1.362,4.592,2.893,9.751,4,15.158,1.483-9.854,4.585-22.275,8.408-35.784m-116.869-8.908c3.125,3.348,6.859,6.3,10.985,7.509,9.5,2.794,13.593-6.737,17.554-15.954.527-1.226,1.039-2.417,1.551-3.55-2.388-4-3.369-10.706-2.567-17.907a41.942,41.942,0,0,1,1.043-5.777,82.077,82.077,0,0,0-15.833-8.963c-8.071,16.189-13.881,29.611-16.56,38.132a11.5,11.5,0,0,1,3.825,6.51m127.188-17.235c-2.278,7.443-4.552,14.975-6.666,22.3,5.442-2.442,9.391-6.905,8.031-15.973a49.714,49.714,0,0,0-1.365-6.327M288.352,389.87a.294.294,0,0,0,.1.012,3.306,3.306,0,0,0,2.179-.621c-.72-1.243-1.474-2.492-2.22-3.707a11.235,11.235,0,0,0-.276,3.718c.08.483.211.6.212.6m38.1-14.986c1.844,2.262,4.2,2.31,7.177.15,2.508-1.816,3.475-4.036,2.954-6.787a11.665,11.665,0,0,0-1.012-2.923,22.881,22.881,0,0,1-4.165,2.908c-1.855.874-3.43,3.447-4.955,6.651m-2.193-21.855a39.565,39.565,0,0,0-.75,4.454c-.639,5.736-.063,11.219,1.471,14.858,1.545-2.987,3.209-5.294,5.386-6.319a21.921,21.921,0,0,0,3.972-2.833,45.952,45.952,0,0,0-10.078-10.159m108.116-63.775q-.04.86-.084,1.718c-.661,12.584-2.765,35.19-9.438,45.2-8.148,12.222-6.222,16.737-3.03,24.218q.359.842.74,1.748l.878-2.853c8.838-28.713,17.187-55.833,16.967-67.263a38.559,38.559,0,0,0-2.377-13.768q-1.36,4.917-3.654,11M324.943,350.491c3.507,2.64,8.231,6.663,11.254,11.095,5.892-5.222,14.608-14.071,23.121-22.716,12.13-12.316,23.587-23.95,28.3-26.676a10.641,10.641,0,0,0,2.97-2.515,59.353,59.353,0,0,1-8.642-8.384c-4.152-4.864-5.931-8.323-5.29-10.283.232-.707.963-1.87,3.251-1.718a13.917,13.917,0,0,1,4.828,1.47,25.4,25.4,0,0,1-3.105-9,11.645,11.645,0,0,0-2.914-.911,1.088,1.088,0,0,0-.909.234c-1.18,1.024-1.343,4.908-1.487,8.336a48.191,48.191,0,0,1-.735,7.77c-.714,3.33-6.8,10.323-18.1,20.783-9.573,8.867-20.129,17.658-26.344,22.437-2.649,2.038-4.81,5.609-6.2,10.075m-89.8,8.866a9.142,9.142,0,0,0,2.691,1.167c1.753.548,6.695-1.233,13.531-5.1l-.366.058c-12.264,1.857-15.17,3.315-15.855,3.871m-81.039.009c4.491,0,9.45.236,14.616.483,15.27.728,32.578,1.553,36.315-4.675a86.51,86.51,0,0,0,4.363-9.721,78.175,78.175,0,0,0-7.838-12.254c-.924,2.665-1.641,4.822-2.072,6.266-.087,2.034-.377,2.6-.829,2.939a1.28,1.28,0,0,1-1.553.015c-.733-.553-.631-1.354-.039-3.351.052-2.321-.136-6.559-.425-11.53q-.249-.256-.5-.506a40.8,40.8,0,0,0-9.079-7.078c.928,10.683-.424,13.62-1.583,14.884a38.358,38.358,0,0,1-4.427,4.262c-1.1.852-2.717,1.9-4.035,1.135-1.457-.842-1.466-3.038-.031-7.581.643-2.036,3.091-7.21,6.7-14.217a12.926,12.926,0,0,0-6.782-.66c-6.684,1.337-15.07,7.555-22.433,16.633-6.763,8.339-10.912,17.079-10.326,21.748.192,1.53.914,3.542,5,3.326,1.575-.083,3.233-.118,4.961-.118M341.773,274.5c-18.631,15.905-36.03,30.83-39.952,38.333-4.972,9.512-16.971,21.944-32.219,33.415l1.33-.62c10.355-4.83,21.062-9.825,30.607-7.362,1.113.287,2.308.667,3.56,1.127q1.315-2.614,2.7-5.307c10.447-20.327,22.522-41.44,33.974-59.586M202.515,330.473a81.192,81.192,0,0,1,8.071,12c1.913-4.849,4.081-10.559,6.305-16.414,4.168-10.975,8.893-23.414,13.031-33.122,6.373-14.95,8.9-17.679,10.526-18.378,8.238-3.53,20.305-11.047,21.537-15.979.583-2.329-.227-8.985-1.969-16.186-1.9-7.85-3.889-12.139-4.835-12.954-1.229,1.153-1.966,6.24-2.511,10-.666,4.595-1.294,8.934-2.814,11.214-.152.229-.3.45-.439.663-2.943,4.456-4.252,5.8-12.171,4.312-4.309-.809-5.545-6.493-5.995-12.244-3.187,4.354-6.743,9.582-10.622,15.622A27.625,27.625,0,0,0,222.363,264c1.355,3.188,2.635,6.2.927,10.644-3.739,9.717-15.007,39.494-20.775,55.833M196.9,340.8h0Zm-12.147-19.06a116.43,116.43,0,0,0-5.433,11.647,14.771,14.771,0,0,0-.96,4.56c.6-.273,2.1-1.251,5.318-4.764.7-.766,1.651-3.28,1.074-11.442m14.492,8.636c.033.627.063,1.218.09,1.779q.18-.52.371-1.068l.042-.122q-.25-.3-.5-.589m-.221-3.89q.839.886,1.66,1.821c1.747-4.927,4.049-11.246,6.864-18.841,5.589-15.078,11.908-31.681,13.457-35.706,1.353-3.52.41-5.739-.895-8.81-.415-.977-.859-2.021-1.247-3.177q-5.505,8.7-11.79,19.409c-3.489,5.947-6.812,11.779-9.869,17.27.291,4.824.632,9.872.966,14.831.36,5.337.642,9.672.853,13.2m-11.939-9.281.233.115a39.419,39.419,0,0,1,9.1,6.572c-.213-3.4-.455-6.987-.689-10.443-.247-3.664-.5-7.377-.729-11.014-2.976,5.413-5.651,10.416-7.917,14.77m-17.9-74.9c-2.953,10.125-3.8,18.125-2.27,21.5,1.026,2.258,3.925,4.973,6.729,7.6,3.874,3.628,7.22,6.761,7.22,9.711,0,1.059.771,5.138,1.663,9.861,1.191,6.3,2.775,14.685,3.8,22.391,2.478-4.7,5.324-9.955,8.4-15.482-.24-4.02-.443-7.875-.577-11.385-.465-12.125.121-14.841.755-15.9.541-.9,1.15-1.833,1.794-2.818,2.852-4.36,6.083-9.3,4.983-14.075-.565-2.449-3.03-7.246-6.28-12.22a44.229,44.229,0,0,0-6.283-8.049,40.759,40.759,0,0,0,.709,5.741c.841,5.084,1.794,10.846-.271,13.944-2.226,3.339-6.307,6.816-9.8,7a4.121,4.121,0,0,1-3.528-1.46c-1.094-1.312-2.376-4.72-3.862-8.666a80.864,80.864,0,0,0-3.184-7.7m224.845,66.5a12.988,12.988,0,0,0,7-.246c6.112-1.625,11.722-5.831,14.291-10.715,4.089-7.769,1.73-19.088.38-23.427-.927,1.2-2.339,3.458-3.446,5.224-3.42,5.455-6.007,9.4-8.157,10.476-2.232,1.116-6.114-.352-11.98-3.229a6.229,6.229,0,0,0,.608,2.97,22.319,22.319,0,0,1,2.684,8.266,8.788,8.788,0,0,1,2.369,2.731,1.292,1.292,0,0,1-.487,1.426,1.491,1.491,0,0,1-1.683-.018,18.2,18.2,0,0,1-.5,3.578,14.726,14.726,0,0,1-1.073,2.965M378.967,291.8c-.128.47.467,2.768,4.75,7.808a58.362,58.362,0,0,0,8.174,8,12.218,12.218,0,0,0,.837-2.348,16.82,16.82,0,0,0,.444-4.552,28.079,28.079,0,0,1-5.45-5.4c-2.808-1.861-5.814-3.43-7.982-3.575a1.762,1.762,0,0,0-.774.066m10.455,1.7c.548.369,1.073.738,1.565,1.094.019.014.62.452,1.457,1.1a16.991,16.991,0,0,0-1.8-4.53,10.323,10.323,0,0,1-.959-5.474l-1.239-.628c-1.4-.711-2.819-1.432-4.145-2.072a28.209,28.209,0,0,0,5.116,10.508M289.8,233.423a1.385,1.385,0,0,1,.452.077,1.285,1.285,0,0,1,.754.67c.273.567.555,1.152-2.741,14.314-1.947,7.775-4.738,18.243-7.859,29.474-1.357,4.882-2.831,10.1-4.353,15.4,10.14-27.149,15.919-42.1,17.183-44.445,2.142-3.975,9.817-6.77,16.588-9.236,3.034-1.1,7.135-2.6,7.966-3.447a1.31,1.31,0,0,1,.611-1.414c.982-.564,1.758.268,2.657,1.23.661.707,1.538,1.706,2.648,2.971,5.18,5.9,14.821,16.883,22.557,20.751a3.7,3.7,0,0,0,3.012.175,10.717,10.717,0,0,0,4.1-3.1q2.4-3.483,4.691-6.673l.274-.379c3.665-6.165,7.464-14.316,11.195-22.32,4.7-10.083,9.558-20.508,14.693-28.554,2.367-3.708,4.162-6.738,5.435-9.2-6.818-.789-14.172.781-22.157,2.484l-1.421.3c-1.544,2.253-3.234,4.57-5.086,6.85-7.7,9.473-24.262,18.7-33.451,23.364-12.6,6.389-25.582,11.412-30.2,11.685a4.341,4.341,0,0,1-3.6-1.556c-3.261-3.7-3.215-14.019-2.467-22.815a104.614,104.614,0,0,1-12.672,5.1c-2.974,7.125-5.8,15.193-8.045,21.6-1.5,4.277-2.583,7.35-3.375,9.307,2.744-1.407,7.491-4.26,10.934-6.329,8.637-5.192,10.661-6.278,11.679-6.278m94.178,46.7c1.678.767,3.569,1.728,5.584,2.752l.318.161a92.838,92.838,0,0,1,3.19-14.7c-1.381,1.3-3.24,3.283-4.533,4.661-1.164,1.241-2.367,2.524-3.4,3.553a5.057,5.057,0,0,0-1.161,3.577m48.646-7.779c.055,2.785.059,5.71.011,8.7q1.047-3.315,1.729-6.166a25.705,25.705,0,0,0-1.74-2.531m-3.453-14.076c-.711,3.073-.327,5,.714,6.758a64.654,64.654,0,0,0-.714-6.758m-73.893.112q-1.078,1.568-2.173,3.189c13-11.212,26.23-23.006,36.221-33.632-8.468,2.333-18.38,8.745-28.8,23a47.526,47.526,0,0,1-5.249,7.445m-124.63-25.626c-1.474,1.566-3.943,5.433-6.337,10.631a45.672,45.672,0,0,0-3.815,11.376c3.529-5.391,7.136-10.629,10.55-15.138-.022-.56-.041-1.11-.059-1.645a51.924,51.924,0,0,0-.338-5.224M169.532,241.2h0M392.2,190.124a115.3,115.3,0,0,1-5.908,10.1c-5.048,7.909-9.872,18.261-14.538,28.271-1.92,4.119-3.775,8.1-5.587,11.8a57.047,57.047,0,0,1,15.593-12.021,36.573,36.573,0,0,1,10.448-3.469c8.344-9.3,13.8-17.518,13.855-23.388a6.723,6.723,0,0,0-2.335-5.385,24.732,24.732,0,0,0-11.528-5.908m-98.34,18.4c-.871,9.267-.979,19.639,1.72,22.7a1.9,1.9,0,0,0,1.626.731c3.732-.221,15.689-4.554,29.238-11.425,9.016-4.572,25.247-13.6,32.659-22.725,1.243-1.531,2.4-3.063,3.492-4.58-12.718,2.576-26.942,4.422-43.058-2.422a47.781,47.781,0,0,1-12.919-8.267c1.306,4.579.949,9.6-2.268,17.961-1.171,3.045-2.387,4.519-3.943,4.778a3.557,3.557,0,0,1-2.89-1,13.116,13.116,0,0,1-.661,1.327,9.382,9.382,0,0,1-3,2.913m-3.7-10.638a4.308,4.308,0,0,0-2.893,1.558c-2.343,2.344-4.872,7.031-7.345,12.616a76.7,76.7,0,0,0,11.635-4.979c.336-3.206.732-6.05,1.04-8.069a4.067,4.067,0,0,0-2.333-1.123l-.1,0m4.557,3.351c-.172,1.212-.34,2.506-.5,3.847a3.9,3.9,0,0,0,.512-.687,11.17,11.17,0,0,0,.91-2.058q-.253-.3-.508-.6c-.138-.165-.277-.331-.418-.5m.483-3.132c.359.37.7.758,1.04,1.148a11.648,11.648,0,0,0-.41-4.208,10.158,10.158,0,0,0-.317,1.288c-.1.547-.208,1.141-.313,1.772M405.986,180.71a7.129,7.129,0,0,0,.132,5.938c4.3,8.337,9.849,11.516,12.527,11.619a1.713,1.713,0,0,0,1.569-.584c.188-.3.676-1.524-.932-4.447-1.955-3.556-7.261-7.975-13.3-12.526m-25.206-7.643c-.048,0-.1,0-.143.006-2.413.2-5.479,5.133-9.028,10.849-1.085,1.747-2.273,3.66-3.577,5.663,6.692-1.425,13.031-2.7,19.059-2.523a33.631,33.631,0,0,1,3.7.311c1.1-2.483,1.476-4.2,1.214-5.337-.275-1.194-1.279-1.857-3.179-3.021a21.994,21.994,0,0,1-5.479-4.348,3.733,3.733,0,0,0-2.572-1.6m-80.622-2.731c9.562,8.427,23.284,16.057,41.068,7.372,17.208-8.4,27.562-20,33.411-37.87a2.667,2.667,0,0,1,.348-1.086q.791-2.528,1.468-5.223a173.717,173.717,0,0,0-42.765-39.205,122.181,122.181,0,0,1-25.749-21.581,68.964,68.964,0,0,1-4.821-6.1,64.559,64.559,0,0,0-7.8.989c-4.44,1.794-9.608,4.01-11.313,6.994-1.793,3.138-2.8,13.7-3.6,22.187-1.162,12.219-1.572,15.014-3.22,15.443a185.9,185.9,0,0,0,7.045,28.346A122.159,122.159,0,0,0,295.3,164.854c.434.429.881.887,1.324,1.356.887.939,2.217,2.415,3.535,4.127m77.41-23.793a30.864,30.864,0,0,0,3.789,10.366c3.055,4.936,11.576,11.172,19.817,17.2,1.309.958,2.608,1.909,3.881,2.85,2.048-3.532,5.347-7.214,8.881-11.158,5.148-5.745,10.983-12.257,13.881-19.5,3.266-8.161,2.269-16.065-3.048-24.167-8.275-12.609-14.73-20.115-18.688-24.19-1.487-1.531-2.765-2.733-3.828-3.663a18.173,18.173,0,0,1-1.269,4.746,61.02,61.02,0,0,1-6.4,11.692,34.161,34.161,0,0,1-3.448,4.348q-.331,1.207-.691,2.428c-1.947,6.6-6.091,18.142-9.279,19.578a2.053,2.053,0,0,1-.942.188,33.256,33.256,0,0,1-1.306,7.891c-.374.967-.887,1.308-1.346,1.386m-.18-7.311c.049.128.095.274.14.44q.078-.649.149-1.387-.143.476-.289.948m3-4.666.049.061c.453-.442,1.468-1.709,3.069-5.2a98.23,98.23,0,0,0,4.584-12.59,2.247,2.247,0,0,1-.266-.054c-.727-.182-1.544-.827-1.3-2.873.152-1.3.653-3.444,1.347-6.414,1.19-5.1,2.85-12.208,4.037-20.343a14.485,14.485,0,0,0-.594-2.671c-.632.994-1.916,3.89-4.075,12.32-1.838,7.177-3.82,16.387-5.568,24.512-.426,1.983-.84,3.9-1.24,5.746.087,2.69.063,5.221-.04,7.5M306.025,66.5c1.091,1.481,2.481,3.213,4.215,5.152a120.815,120.815,0,0,0,24.77,20.615A175.494,175.494,0,0,1,377.168,130.5q.4-1.78.809-3.683c-.1-2.784-.332-5.885-.774-9.2-1.611-12.065-6.27-28.3-19.32-37.153-9.962-6.754-23.918-11.611-38.29-13.326a91.73,91.73,0,0,0-13.567-.641m2.53-2.479a95.832,95.832,0,0,1,11.327.692c14.747,1.76,29.1,6.764,39.373,13.731,13.455,9.122,18.41,25.487,20.2,37.609q.18,1.218.324,2.424c1.726-8.006,3.626-16.707,5.392-23.447,2.974-11.352,4.511-13.471,6.332-13.4.048,0,.095.005.141.01-2.788-.919-6.553-2.443-11.625-4.52-12.777-5.234-30.274-12.4-46.3-14.241a126.091,126.091,0,0,0-29.945-.227,2.333,2.333,0,0,1-.114.3q.309.53.724,1.178,2.049-.1,4.175-.1m82.34,41.238c-.227.987-.445,1.921-.648,2.794-.487,2.085-.9,3.842-1.13,5.081.585-2.24,1.227-4.952,1.778-7.875m-113.511,4.847h0m-.851-1.943.075.172c.494-2.664.962-7.589,1.358-11.755.873-9.175,1.861-19.574,3.915-23.169a8.433,8.433,0,0,1,.9-1.269c-5.21,3.186-7.9,7.477-8.005,12.776a146.8,146.8,0,0,0,1.759,23.245m22.615-44.791c-11.65,2.182-20.317,6.7-25.1,13.338-5.565,7.732-3.711,16.407-.972,23.5a130.078,130.078,0,0,1-.749-15.339c.132-6.706,3.932-12.182,10.991-15.835a42.523,42.523,0,0,1,11.262-3.744l.66-.266c1.185-.477,2.679-1.078,3.906-1.653m93.158,18.478a1.893,1.893,0,0,1,.259.176l.01-.093-.27-.083m2.887-1.758a5.361,5.361,0,0,0,1.236.141,6.4,6.4,0,0,0-1.078-1.932q-.073.9-.158,1.792M300.458,41.044a105.414,105.414,0,0,1,11.286.62,177.358,177.358,0,0,1,61.593,17.923c8.262,4.233,15.347,8.909,19.953,13,.643-16.382-2.069-34.3-13.889-47.679C355.439-2.221,323.057-4.852,290.56,17.689c-12.368,8.578-15.6,18.512-16.582,27.6l.437-.156a78.535,78.535,0,0,1,26.044-4.093m-29.226,8c-7.2,3.241-11.678,7.268-13.685,10.284-1.634,2.455-2.094,4.727-1.263,6.234.859,1.558,3.116,2.373,6.363,2.294,4.8-.117,6.283-2.07,7.041-3.759,1.124-2.5,1.236-6.207,1.365-10.5.044-1.453.09-2.978.177-4.557" transform="translate(0 0)" fill="#fff"/>
  </g>
</svg>
