<svg xmlns="http://www.w3.org/2000/svg" width="20.164" height="13.443" viewBox="0 0 20.164 13.443">
  <path id="Icon_awesome-eye" data-name="Icon awesome-eye" d="M.122,10.71a11.228,11.228,0,0,1,9.96-6.21,11.23,11.23,0,0,1,9.96,6.211,1.133,1.133,0,0,1,0,1.022,11.228,11.228,0,0,1-9.96,6.21,11.23,11.23,0,0,1-9.96-6.211A1.133,1.133,0,0,1,.122,10.71Zm9.96,5.552a5.041,5.041,0,1,0-5.041-5.041A5.041,5.041,0,0,0,10.082,16.263Zm0-8.4a3.336,3.336,0,0,1,.886.133,1.675,1.675,0,0,0,2.342,2.342,3.353,3.353,0,1,1-3.228-2.475Z" transform="translate(0 -4.5)" fill="#a4b0b8"/>
</svg>
