<svg xmlns="http://www.w3.org/2000/svg" width="66.663" height="66.667" viewBox="0 0 66.663 66.667">
  <path id="Path_1" data-name="Path 1" d="M0,37.216V62.835l6.594-6.594V33.335a26.727,26.727,0,0,1,.157-2.87ZM30.622,18.862V12.19a21.159,21.159,0,0,0-6.6,1.98V38.81l6.6-6.6V18.862Zm2.915,35.786H58.9a33.511,33.511,0,0,0,4.307-6.59l-6.607,0H40.229l-.8,0,0,0,0,0L37.3,50.185l-3.76,3.76-.7.7,0,0ZM48.054,30.622V18.607H36.041V12.015H54.648v2.918l0,9.094,0,6.6Zm12.013-6.6v6.6l6.593,0V0H36.037l0,6.593H56.177l3.889,0,0,3.889V24.026Zm-17.432,0h-6.6l0,6.6,6.594,0ZM27.413,60.067H53.17a33.09,33.09,0,0,1-19.838,6.6l-3.961-.007H20.82l-7.659.005H10.55l-6.716,0,6.093-6.093.5-.5,5.418-5.418,12.01-12.011,3.051-3.051,0,0,3.54-3.541h9.329l-6.6,6.6-3.541,3.542-.112.11-.065.065L19.756,60.067Zm37.911-17.43a32.739,32.739,0,0,0,1.222-6.6H59.927l-5.453,0-3.341,0,.153.154-6.44,6.441H65.325ZM12.013,31.624V17.248q-.39.515-.756,1.049h0L.243,29.308A33.474,33.474,0,0,1,30.622.116V6.735A26.556,26.556,0,0,0,18.606,11.05V44.229l-6.593,6.593V33.335c0-.576.025-1.145.069-1.71Z" fill="#2491eb" fill-rule="evenodd"/>
</svg>
